<?xml version="1.0" encoding="UTF-8"?><svg id="Layer_2" xmlns="http://www.w3.org/2000/svg" viewBox="0 0 889.74 328.06"><defs><style>.cls-1{fill:#02c27f;}.cls-2{fill:#ed5e3b;}.cls-3{fill:#eaeaea;}.cls-4{fill:#ffedb3;}.cls-5{fill:#ffc501;}.cls-6{fill:#0b513f;}.cls-7{fill:#08664b;}.cls-8{fill:#0c513f;}.cls-9{fill:#3b5850;}</style></defs><g id="Layer_1-2"><g><path class="cls-6" d="M875.5,271.11c-80.8,17.06-269,55.48-427,56.89-171.57,1.53-353.95-28.45-436.18-49.1-12.45-3.12-15.72-17.72-8.62-26.22,85.8,21.08,257.11,57,425.96,54.54,244.49-3.54,374.42-48.15,455.47-65.72,8.92,9.69,4.48,26.64-9.63,29.61h0Z"/><path class="cls-7" d="M885.13,241.5c-81.05,17.57-210.98,62.18-455.47,65.72-168.85,2.46-340.16-33.46-425.96-54.54,1.62-1.95,3.79-3.57,6.52-4.67,31.34-12.58,145.06-45.13,172.45-64.72,13.88-9.93,28.17-19.13,44.81-15.33,57.12,13.06,185.84,30.45,238.87,28.61,96.96-3.37,166.4-16.07,218.63-27.33,15.14-3.27,26.9,6.71,39.36,15.91,4.73,3.49,29.77,10.33,59.03,18.66h.01c38.86,14.8,79.41,27.87,96.61,33.73,.43,.25,.85,.5,1.25,.75,1.5,.93,2.8,2.02,3.89,3.21h0Z"/><g><path class="cls-9" d="M752.9,219.81c-3.93,29.46-44.36,49.76-115.89,49.76s-136.84-11.13-134.23-49.76c3.83-56.48,257.6-56.11,250.12,0Z"/><path class="cls-4" d="M751.15,207.53c-3.48,37.4-41.6,54.79-109.58,54.79s-138.28-6.09-137.41-52.18c1.01-53.79,28.7-116.54,123.08-117.41,67.97-.63,128.89,61.23,123.91,114.8h0Z"/><path class="cls-9" d="M229.73,245.37s-11.85,4.52,1.13,11.93c12.98,7.42,109.4,37.08,182.95,6.18s74.95-54.36,57.48-63.66c-19.51-10.39-84.06,16.69-84.06,16.69l-157.51,28.86h.01Z"/><g><path class="cls-3" d="M407.21,245.37c0,11.01-39.73,23.31-88.74,23.31s-88.74-12.31-88.74-23.31,39.73-19.93,88.74-19.93,88.74,8.92,88.74,19.93Z"/><path class="cls-3" d="M492.65,155.9c2.26,.75-1.92,31.15-86.19,88.72l-176.73,.75s-100.77-62.64-90.71-91.39l353.63,1.92h0Z"/><path class="cls-4" d="M213.28,100.39l-60.97,35.07c-4.12,2.37-7.69,5.64-10.25,9.65-26.91,42.17,118.62,53.84,167.54,54.4,167.71,1.92,183.57-26.36,188.06-59.68l-51.92-39.03-232.46-.4h0Z"/><path class="cls-5" d="M139.23,158.8c6.44,10.12,17.94,36.34,170.64,40.48,154.07,4.18,176.03-28.08,178.46-35.42,2.09-6.3,21.62-25.3-1.53-38.03-6.27-3.45-13.41-26.73-19.17-30.96-11.28-8.28-8.8-24.97-20.09-33.25-9.68-7.1-20.8-7.86-27.93-17.52-6.59-8.92-17.17-15.25-27.71-18.7-6.06-1.98-26.57,11.27-29.4,5.55-1.55-3.13-1-7.51-3.86-9.51-1.67-1.16-3.92-1.02-5.78-1.84-2.77-1.21-4.16-4.23-5.82-6.76C340.93,3.55,328.95-.51,317.85,.05c-11.11,.56-19.47-.64-25.81,2.08-3.32,1.42-13.07,11.57-12.44,15.13,.48,2.76,3.69,4.75,1.58,8.12-.68,1.09-1.68,1.93-2.82,2.52-15.21,7.9-20.47,16.74-32.05,29.38-3.77-4.23-7.81-8.47-13-10.74s-11.86-2.09-15.9,1.88c-4.05,3.97-3.6,12.03,1.57,14.36-11.46,11.99-27.51,9.71-31.89,31.87-1.02,5.15-9.62,2.62-16.04,9.22-2.92,3.83-.75,9.2,.59,13.82,2.52,8.73-9,12.5-8.51,21.58-2.88-.44-5.88-.09-8.58,1,0,0-18.99,6.57-15.31,18.53h-.01Z"/><g><polygon class="cls-8" points="311.32 68.79 307.51 86.13 314.7 82.75 318.08 65.83 311.32 68.79"/><polygon class="cls-1" points="461.54 147.9 457.74 165.25 464.93 161.86 468.31 144.94 461.54 147.9"/><polygon class="cls-1" points="337.77 37.55 336.5 45.17 347.5 40.51 348.77 33.74 337.77 37.55"/><polygon class="cls-8" points="300.12 34.17 292.51 44.32 284.47 45.59 290.82 35.01 300.12 34.17"/><path class="cls-1" d="M230.32,95.08c-1.27,0-6.77,13.96-6.77,13.96l3.38,4.23,5.92-13.11-2.54-5.08h0Z"/><path class="cls-8" d="M369.74,113.07c-1.27,0-6.77,13.96-6.77,13.96l3.38,4.23,5.92-13.11-2.54-5.08h0Z"/><path class="cls-1" d="M390.44,156.12c.46,1.18,15.47,1.21,15.47,1.21l2.71-4.69-14.37-.73-3.8,4.21h-.01Z"/><path class="cls-8" d="M439.97,174.88c-1.01-.76-13.8,7.09-13.8,7.09l.16,5.42,12.62-6.92,1.02-5.58h0Z"/><path class="cls-8" d="M417.03,62.81c-.23-1.25-14.96-4.1-14.96-4.1l-3.54,4.1,13.98,3.42,4.53-3.42h-.01Z"/><path class="cls-2" d="M248.43,180.49c-.18-.97-11.64-3.19-11.64-3.19l-2.75,3.19,10.87,2.66,3.52-2.66h0Z"/><polygon class="cls-8" points="281.51 172.08 281.51 183.08 287.01 179.69 286.59 169.12 281.51 172.08"/><polygon class="cls-8" points="265.4 73.26 265.4 84.26 270.9 80.87 270.47 70.3 265.4 73.26"/><polygon class="cls-8" points="193.01 108.83 201.35 115.99 202.37 109.62 194.07 103.05 193.01 108.83"/><polygon class="cls-8" points="252.32 140.35 251.47 151.35 256.97 147.12 256.97 137.39 252.32 140.35"/><polygon class="cls-2" points="261.58 100.15 250.57 100.87 255.53 105.72 265.17 104.34 261.58 100.15"/><polygon class="cls-8" points="200.94 178.2 211.97 178.34 207.4 173.12 197.69 173.75 200.94 178.2"/><polygon class="cls-2" points="312.87 39.98 323.9 40.12 319.32 34.91 309.61 35.53 312.87 39.98"/><polygon class="cls-1" points="298.65 114.23 289.34 123.11 297.8 125.65 306.68 117.19 298.65 114.23"/><polygon class="cls-1" points="448.9 100.5 439.59 109.38 448.05 111.92 456.93 103.46 448.9 100.5"/><polygon class="cls-8" points="303.51 117.51 300.97 121.31 311.54 123 313.24 119.2 303.51 117.51"/><polygon class="cls-8" points="360.68 182 357.72 178.51 353.18 188.22 356.38 190.89 360.68 182"/><polygon class="cls-1" points="341.5 90.53 337.78 93.19 347.07 98.52 350 95.56 341.5 90.53"/><polygon class="cls-8" points="209.2 139.68 206.66 143.48 217.24 145.18 218.93 141.37 209.2 139.68"/><polygon class="cls-2" points="359.18 144.49 356.64 148.3 367.22 149.99 368.91 146.18 359.18 144.49"/><polygon class="cls-8" points="221.22 63.14 218.68 66.95 229.26 68.64 230.95 64.83 221.22 63.14"/><polygon class="cls-8" points="428.1 123.11 425.56 126.91 436.14 128.61 437.83 124.8 428.1 123.11"/><polygon class="cls-8" points="377.96 80.7 372.88 86.62 382.61 88.74 386.42 84.09 377.96 80.7"/><polygon class="cls-8" points="409.61 103.73 404.79 97.59 400.81 106.72 404.64 111.36 409.61 103.73"/><polygon class="cls-2" points="436.22 76.39 431.83 82.84 441.73 83.87 445 78.83 436.22 76.39"/><polygon class="cls-8" points="317.81 8.73 312.73 14.66 322.46 16.77 326.27 12.12 317.81 8.73"/><polygon class="cls-8" points="454.05 147.9 448.97 153.82 458.7 155.94 462.51 151.29 454.05 147.9"/><polygon class="cls-8" points="380.5 35.01 377.12 44.32 384.31 54.9 387.27 47.28 380.5 35.01"/><polygon class="cls-1" points="159.1 157.48 163.33 161.28 178.13 157.48 172.21 152.4 159.1 157.48"/><polygon class="cls-8" points="310.5 168.03 310.92 175.22 323.19 166.34 321.92 158.3 310.5 168.03"/><polygon class="cls-1" points="309.01 165.73 315.35 180.54 323.81 183.92 315.77 168.69 309.01 165.73"/></g></g></g></g></g></svg>