<?xml version="1.0" encoding="UTF-8"?><svg id="Layer_2" xmlns="http://www.w3.org/2000/svg" viewBox="0 0 274.35 616.86"><defs><style>.cls-1{fill:#ed5e3b;}.cls-2{fill:#ffdc67;}.cls-3{fill:#fedc67;}.cls-4{fill:#ffc501;}.cls-5{fill:#ffd134;}.cls-6{fill:#e5aa03;}.cls-7{fill:#ff884d;}.cls-8{fill:#fef9e5;}.cls-8,.cls-9{isolation:isolate;opacity:.8;}.cls-9{fill:#cec095;}</style></defs><g id="Layer_1-2"><g><g><path class="cls-4" d="M228.66,3.89V23.85c-5.74,.74-17.16,1.25-30.31,1.25-14.07,0-26.16-.58-31.43-1.4V3.89c0-.97,.36-1.87,.96-2.54,5.81,1.46,16.78,2.45,29.37,2.45,13.23,0,24.69-1.09,30.22-2.68,.73,.69,1.18,1.69,1.18,2.78h.01Z"/><path class="cls-1" d="M232.8,46.66c0,.4-1.63,1.1-4.15,1.42-5.74,.74-17.16,1.25-30.31,1.25-14.07,0-26.16-.58-31.43-1.4-1.82-.28-3.36-.44-3.43-1.1-.03-.33,.14-.87,1.56-1.07V23.38c5.27,.83,19.23,1.72,33.29,1.72,13.15,0,26.25-1.08,31.99-1.82v22.07c2.69,.28,2.46,.92,2.46,1.31h.02Z"/><path class="cls-7" d="M228.66,48.08v80.76h-61.73V47.93c5.27,.83,17.36,1.4,31.43,1.4,13.15,0,24.56-.5,30.31-1.25h-.01Z"/><path class="cls-7" d="M274.34,238.04v350.78c0,6.81-9.54,28.04-74.86,28.04-70.23,0-75.55-21.24-75.55-28.06V238.04c0-16.92,6.95-32.22,18.15-43.19,6.45-7.33,23.78-28.03,24.88-40.51h61.65c.97,11.74,18.08,30.78,26.02,39.03,12.12,11.06,19.72,26.98,19.72,44.68h-.01Z"/><path class="cls-1" d="M227.48,1.11c-5.53,1.59-16.99,2.68-30.22,2.68s-23.57-.99-29.37-2.45c.71-.83,1.76-1.34,2.93-1.34h53.95c1.06,0,2.02,.41,2.71,1.11h0Z"/><path class="cls-4" d="M151.32,275.39v142.38h-.52c-6.35-1.4-12.58-3.19-18.59-5.44v-139.66c4.63,.81,11.09,1.81,19.11,2.72h0Z"/><path class="cls-3" d="M132.21,272.67v139.66c-2.83-1.05-5.6-2.21-8.32-3.47v-137.82s2.91,.69,8.32,1.63h0Z"/><path class="cls-3" d="M274.34,271.8v139.81s-66.36,18.82-123.54,6.16h.52v-142.38c26.81,3.07,71.1,5.23,123.02-3.59h0Z"/><path class="cls-1" d="M228.66,122.17v32.16s-9.64,4.2-28.95,4.2c-23.34,0-32.79-4.2-32.79-4.2v-32.16s13.56,3.44,31.16,3.44c15.47,0,30.58-3.44,30.58-3.44Z"/></g><path class="cls-4" d="M133.49,604.84l4.46-6.2c5.08-4.36,7.97-10.74,7.9-17.43l-2.09-181.11c-.1-9.03-3.36-17.75-9.22-24.63l-11.15-13.12,1.78,234.18,8.32,8.32h0Z"/><g><path class="cls-4" d="M135.21,586.37s-2.07,6.03-15.19,11.19c-9.84,3.88-25.89,7.28-51.95,7.28s-41.89-3.32-51.92-7.14c-13.62-5.2-15.98-11.32-15.98-11.32l-.17-185.5c0-17.4,10.51-21.73,14.14-29.9,6.34,2.93,26.2,6.6,53.74,6.6,25.53,0,47.13-2.64,54.28-6.28,2.2,7.4,12.89,14.69,12.89,29.55l.17,185.53h-.01Z"/><path class="cls-6" d="M120.02,597.56c-.54,9.25-23.58,16.69-51.93,16.69s-51.19-7.38-51.94-16.56c10.03,3.82,26.15,7.14,51.92,7.14s42.11-3.39,51.95-7.28h0Z"/><path class="cls-2" d="M124.66,368.67c0,.92-.88,1.8-2.51,2.63-7.14,3.63-28.74,6.28-54.28,6.28-27.55,0-50.51-3.08-55.69-7.17-.72-.55-1.09-1.14-1.09-1.73,0-1.06,1.18-2.08,3.35-3.01,8.28,3.3,28.83,5.65,52.86,5.65s45.56-2.45,53.44-5.9h0c2.52,1.02,3.91,2.11,3.91,3.26h.01Z"/><path class="cls-5" d="M134.38,394.64s-.07,.04-.11,.06c-8.74,4.44-35.16,7.67-66.39,7.67s-59.59-3.48-67.28-8.19c.45-2.4,1.14-4.49,1.97-6.36,3.35-7.44,9.08-11.24,11.56-16.85,6.34,2.93,26.2,6.6,53.75,6.6,25.53,0,47.13-2.64,54.28-6.28,1.43,4.82,6.47,9.6,9.8,16.45,1.02,2.09,1.88,4.37,2.42,6.91h0Z"/><path class="cls-5" d="M120.75,365.4c-2.55,1.12-6.48,2.13-11.47,2.98-10.4-1.84-25.61-3.01-42.55-3.01s-31.6,1.12-41.98,2.91c-4.34-.77-7.86-1.66-10.3-2.63,7.88-3.44,28.84-5.9,53.43-5.9s44.59,2.35,52.87,5.65h0Z"/><path class="cls-4" d="M109.28,368.38c-10.38,1.79-25.34,2.92-41.97,2.92s-32.16-1.16-42.56-3.01c10.38-1.78,25.35-2.91,41.98-2.91s32.15,1.16,42.55,3.01h0Z"/><path class="cls-1" d="M67.86,492.92c0,42.25-21.14,76.49-47.22,76.49-7.34,0-14.29-2.71-20.49-7.55L.03,424.08c6.23-4.91,13.22-7.67,20.62-7.67,26.08,0,47.22,34.25,47.22,76.5h-.01Z"/><g><g><path class="cls-9" d="M106.51,444.94c-7.99,.48-1.94-15.49,0-15.9,1.66-.35,7.5,15.45,0,15.9Z"/><path class="cls-8" d="M107.16,443.53c-8.05,.49-1.95-15.61,0-16.03,1.67-.36,7.56,15.57,0,16.03Z"/></g><g><path class="cls-9" d="M66.19,573.57c-7.99,.48-1.94-15.49,0-15.9,1.66-.35,7.5,15.45,0,15.9Z"/><path class="cls-8" d="M66.84,572.17c-8.05,.49-1.95-15.61,0-16.03,1.67-.36,7.56,15.57,0,16.03Z"/></g><g><path class="cls-9" d="M106.55,425.17c-.25,.2-.61,.08-.68-.23-.35-1.56-2.21-4.83,.88-11.13,0,0-.56,2.87,.73,6.1,1.25,3.12-.21,4.7-.93,5.27h0Z"/><path class="cls-8" d="M106.55,424.13c-.25,.2-.61,.08-.68-.23-.35-1.56-2.21-4.83,.88-11.13,0,0-.56,2.87,.73,6.1,1.25,3.12-.21,4.7-.93,5.27h0Z"/></g><g><path class="cls-9" d="M65.96,552.15c-.25,.2-.61,.08-.68-.23-.35-1.56-2.21-4.83,.88-11.13,0,0-.56,2.87,.73,6.1,1.25,3.12-.21,4.7-.93,5.27h0Z"/><path class="cls-8" d="M65.96,551.11c-.25,.2-.61,.08-.68-.23-.35-1.56-2.21-4.83,.88-11.13,0,0-.56,2.87,.73,6.1,1.25,3.12-.21,4.7-.93,5.27h0Z"/></g></g></g></g></g></svg>