<svg width="553" height="454" viewBox="0 0 553 454" fill="none" xmlns="http://www.w3.org/2000/svg">
<g clip-path="url(#clip0_715_6654)">
<path d="M38.46 97.785L66.7504 96.2578L95.0409 280.528L71.332 282.828L38.46 97.785Z" fill="#E5A900"/>
<path d="M164.175 81.7598L192.102 86.509L179.074 272.483L155.449 269.494L164.175 81.7598Z" fill="#E5A900"/>
<path d="M247.965 77.9042L221.966 76.377L191.375 268.301L219.665 269.065L247.965 77.9042Z" fill="#E5A900"/>
<path d="M56.04 69.4953L85.8577 245.356L108.803 243.931L78.976 65.668L56.04 69.4953Z" fill="#FFC501"/>
<path d="M85.8584 41.2031L109.567 40.4395L136.331 269.063L114.922 270.59L85.8584 41.2031Z" fill="#E5A900"/>
<path d="M141.675 74.8513L116.449 72.5605L114.148 262.185L141.675 262.948V74.8513Z" fill="#E5A900"/>
<path d="M141.676 29.7324L132.504 254.538H154.676L162.322 32.0325L141.676 29.7324Z" fill="#FFC501"/>
<path d="M155.44 59.5586L179.149 64.9038L148.558 263.71L124.858 260.646L155.44 59.5586Z" fill="#FFC501"/>
<path d="M179.912 45.0332H203.612L191.376 268.303H169.967L179.912 45.0332Z" fill="#E5A900"/>
<path d="M208.203 39.6758L169.967 268.3L196.73 269.827L231.902 41.203L208.203 39.6758Z" fill="#FFC501"/>
<path d="M251.02 35.0859L199.794 262.946L223.494 265.237L273.956 39.6768L251.02 35.0859Z" fill="#FFC501"/>
<path d="M79.1074 52.0246L101.941 49.8828L126.19 251.129L103.282 252.507L79.1074 52.0246Z" fill="#FFC501"/>
<path d="M20.8701 88.6138L40.7516 81.5645L88.9237 230.308L69.0421 235.253L20.8701 88.6138Z" fill="#FFC501"/>
<path d="M36.0195 142.243L58.0801 381.455C58.9216 390.474 63.2299 398.814 70.0979 404.72C76.9658 410.625 85.8575 413.636 94.9006 413.116L205.353 406.784C213.848 406.297 221.874 402.73 227.928 396.752C233.983 390.773 237.65 382.792 238.243 374.303L254.689 138.332L223.698 142.243C223.698 142.243 223.912 181.243 155.97 186.755C84.3685 192.557 63.0808 140.316 63.0808 140.316L36.0195 142.243Z" fill="#C6361A"/>
<path d="M168.169 395.971C168.169 418.776 251.215 437.27 353.649 437.27C456.084 437.27 539.13 418.813 539.13 395.971V372.383H168.169V395.971Z" fill="#053829"/>
<path d="M353.649 413.672C456.087 413.672 539.13 395.186 539.13 372.382C539.13 349.578 456.087 331.092 353.649 331.092C251.211 331.092 168.169 349.578 168.169 372.382C168.169 395.186 251.211 413.672 353.649 413.672Z" fill="#0C513F"/>
<path d="M275.734 361.385L276.991 366.842C277.814 370.469 279.46 373.857 281.803 376.745C284.147 379.632 287.124 381.941 290.503 383.493C306.017 390.551 337.679 400.906 384.361 396.958C425.893 393.438 454.603 385.122 470.825 379.097C475.487 377.372 479.51 374.261 482.353 370.183C485.196 366.104 486.724 361.254 486.73 356.282V356.282C486.732 355.175 486.474 354.083 485.975 353.095C485.477 352.106 484.752 351.249 483.861 350.592C482.97 349.936 481.936 349.498 480.844 349.315C479.752 349.133 478.633 349.21 477.576 349.54C448.084 358.75 353.519 383.995 285.456 353.34C284.258 352.808 282.935 352.622 281.636 352.801C280.338 352.98 279.115 353.518 278.105 354.353C277.095 355.189 276.338 356.29 275.919 357.532C275.5 358.774 275.436 360.109 275.734 361.385V361.385Z" fill="#FF884D"/>
<g style="mix-blend-mode:multiply">
<path d="M275.743 361.591C275.743 361.591 338.871 414.521 486.99 362.075L453.467 340.713L291.276 341.644L275.743 361.591Z" fill="#E0CA8C"/>
</g>
<path d="M376.558 386.763C376.558 386.763 396.495 371.062 414.309 380.393L413.462 367.244L380.376 370.215L376.558 386.763Z" fill="#0C513F"/>
<path d="M435.513 366.824L435.941 377.85C435.941 377.85 451.632 360.883 473.264 366.824L464.381 351.98L435.513 366.824Z" fill="#0C513F"/>
<path d="M328.208 383.364C328.208 383.364 352.811 373.614 360.866 382.944L355.772 367.244L330.75 369.796L328.208 383.364Z" fill="#0C513F"/>
<path d="M284.516 366.397C284.516 366.397 306.148 364.283 315.479 374.461L320.572 364.283L304.453 355.371L284.516 366.397Z" fill="#0C513F"/>
<path d="M282.476 349.718C275.362 355.557 271.739 360.278 279.683 366.061C284.534 369.6 299.304 358.341 307.284 361.34C313.803 363.78 316.038 381.948 323.478 383.801C330.658 385.58 341.264 370.606 348.407 371.639C356.257 372.775 362.599 390.087 369.247 390.087C378.671 390.087 387.434 372.924 396.718 372.133C406.357 371.313 417.932 386.706 426.834 385.17C436.78 383.456 442.274 365.027 450.515 362.588C461.271 359.403 477.167 370.754 483.368 366.713C493.891 359.878 490.818 353.397 481.012 345.761C461.112 343.041 461.904 329.473 441.817 329.874C421.731 330.274 422.066 347.018 401.989 347.418C381.912 347.819 381.577 331.057 361.5 331.457C341.423 331.857 342.391 346.561 322.482 348.973C302.572 351.385 302.349 346.934 282.476 349.718Z" fill="#02C27F"/>
<path d="M488.592 329.471C488.592 340.534 474.344 364.336 377.59 364.336C278.201 364.336 269.336 340.488 269.336 329.406C269.341 326.23 270.017 323.09 271.321 320.193C272.624 317.297 274.525 314.708 276.9 312.598C279.274 310.487 282.067 308.903 285.097 307.948C288.126 306.993 291.324 306.689 294.479 307.057C320.553 310.111 436.555 310.018 463.514 306.954C466.664 306.597 469.853 306.908 472.875 307.867C475.896 308.827 478.68 310.413 481.047 312.523C483.413 314.632 485.307 317.217 486.605 320.109C487.904 323.001 488.578 326.134 488.582 329.304L488.592 329.471Z" fill="#D15924"/>
<path d="M280.176 296.602L268.406 319.696C267.903 320.479 268.815 321.354 269.905 321.14L274.151 320.32C277.42 319.687 280.809 320.916 282.271 323.263L299.965 351.619C300.199 351.916 300.534 352.117 300.907 352.182C301.28 352.248 301.664 352.173 301.985 351.972C308.234 347.968 329.224 330.852 374.378 331.942C404.392 332.668 421.722 342.185 421.722 342.185C421.959 342.252 422.209 342.262 422.452 342.215C422.694 342.168 422.923 342.066 423.118 341.915L437.869 329.614C439.627 328.264 441.659 327.315 443.823 326.832C445.986 326.35 448.229 326.346 450.394 326.82L461.112 329.009C461.95 329.186 462.77 328.692 462.77 328.022V317.778C462.77 316.549 463.999 315.515 465.563 315.422L491.098 313.904C492.14 313.839 492.681 312.917 492.029 312.265L476.133 296.053C476.133 296.053 372.479 310.226 280.176 296.602Z" fill="#FFC501"/>
<path d="M377.824 322.256C435.43 322.256 482.129 310.954 482.129 297.011C482.129 283.068 435.43 271.766 377.824 271.766C320.217 271.766 273.518 283.068 273.518 297.011C273.518 310.954 320.217 322.256 377.824 322.256Z" fill="#ED5E3B"/>
<path d="M385.897 323.56C385.897 323.56 403.712 311.258 419.831 319.314L410.519 305.736L390.582 307.44L385.897 323.56Z" fill="#0C513F"/>
<path d="M276.88 287.074L276.032 290.892C276.032 290.892 292.999 297.681 303.177 312.105L307.833 295.558L276.88 287.074Z" fill="#0C513F"/>
<path d="M443.586 315.493C443.586 315.493 456.307 292.585 479.634 292.213L471.998 284.148L436.798 302.773L443.586 315.493Z" fill="#0C513F"/>
<path d="M322.686 322.702C322.686 322.702 348.136 313.39 360.866 325.254L359.59 307.439L323.114 309.553L322.686 322.702Z" fill="#0C513F"/>
<path d="M273.686 262.184C276.479 272.017 267.39 275.137 269.411 283.518C271.628 292.7 288.417 292.309 296.612 298.902C302.339 303.511 303.131 322.024 314.78 324.976C322.379 326.913 334.429 311.995 345.427 313.122C353.687 313.969 361.863 331.29 372.376 331.634C382.182 331.96 391.727 314.723 402.064 313.354C412.232 312.013 425.921 326.196 435.513 323.3C445.756 320.189 448.746 300.951 456.931 296.145C466.709 290.437 485.966 295.102 490.66 287.196C495.772 278.592 488.062 272.623 484.225 261.644C463.338 256.792 464.669 245.161 443.251 245.217C421.833 245.273 421.833 262.035 400.415 262.091C378.997 262.147 378.923 245.385 357.477 245.44C336.031 245.496 336.45 261.225 315.032 262.305C294.154 263.366 294.498 257.016 273.686 262.184Z" fill="#02C27F"/>
<g style="mix-blend-mode:multiply">
<path d="M284.833 283.695C277.383 280.743 274.105 275.09 274.096 267.044C274.096 247.042 285.885 210.78 380.478 210.417C477.735 210.044 484.16 247.479 486.498 266.579C487.522 275.043 479.802 285.203 471.524 287.289C440.877 294.86 355.531 311.529 284.833 283.695Z" fill="#FF884D"/>
</g>
<path d="M284.832 277.175C281.164 275.737 278.011 273.231 275.782 269.983C273.552 266.734 272.349 262.891 272.326 258.951C272.326 238.948 285.885 204.26 380.478 203.897C477.735 203.525 488.341 241.556 486.544 263.141C486.201 267.282 484.567 271.211 481.872 274.374C479.177 277.537 475.557 279.774 471.523 280.769C440.877 288.34 355.531 305.009 284.832 277.175Z" fill="#FF884D"/>
<path d="M389.269 225.726C389.176 227.048 389.055 228.249 387.649 228.017C386.243 227.784 386.262 226.853 386.355 225.521C386.448 224.189 387.351 222.42 388.161 222.476C388.971 222.532 389.363 224.404 389.269 225.726Z" fill="white"/>
<path d="M384.688 247.329C383.822 247.999 383.021 248.577 382.276 247.441C381.531 246.305 382.136 245.811 382.993 245.141C383.85 244.47 385.507 244.135 385.973 244.74C386.438 245.345 385.544 246.668 384.688 247.329Z" fill="white"/>
<path d="M384.11 272.612C383.253 273.273 382.443 273.85 381.707 272.724C380.972 271.597 381.558 271.085 382.424 270.423C383.29 269.762 384.939 269.418 385.404 270.023C385.87 270.628 384.976 271.932 384.11 272.612Z" fill="white"/>
<path d="M402.194 268.395C401.337 269.056 400.527 269.634 399.791 268.507C399.056 267.38 399.642 266.877 400.508 266.207C401.374 265.536 403.023 265.201 403.488 265.807C403.954 266.412 403.06 267.725 402.194 268.395Z" fill="white"/>
<path d="M447.684 254.136C446.818 254.806 446.017 255.383 445.281 254.257C444.546 253.13 445.132 252.618 445.999 251.957C446.865 251.295 448.504 250.951 448.969 251.556C449.435 252.161 448.55 253.474 447.684 254.136Z" fill="white"/>
<path d="M371.659 290.575C370.793 291.245 369.993 291.823 369.248 290.687C368.503 289.551 369.108 289.057 369.965 288.387C370.821 287.716 372.479 287.381 372.944 287.986C373.41 288.592 372.516 289.914 371.659 290.575Z" fill="white"/>
<path d="M322.378 242.432C322.22 243.512 322.043 244.49 320.73 244.192C319.417 243.894 319.482 243.121 319.641 242.041C319.799 240.96 320.749 239.573 321.503 239.675C322.257 239.778 322.537 241.351 322.378 242.432Z" fill="white"/>
<path d="M310.73 247.358C309.65 247.218 308.672 247.041 308.96 245.728C309.249 244.415 310.022 244.471 311.102 244.62C312.182 244.769 313.579 245.7 313.477 246.483C313.374 247.265 311.791 247.47 310.73 247.358Z" fill="white"/>
<path d="M309.529 253.913C310.6 254.118 311.568 254.332 311.214 255.636C310.86 256.94 310.097 256.837 309.026 256.633C307.955 256.428 306.605 255.431 306.744 254.677C306.884 253.923 308.458 253.718 309.529 253.913Z" fill="white"/>
<path d="M310.925 251.903C310.692 252.974 310.45 253.933 309.156 253.542C307.861 253.151 307.992 252.378 308.224 251.317C308.457 250.255 309.509 248.933 310.254 249.1C310.999 249.268 311.158 250.842 310.925 251.903Z" fill="white"/>
<path d="M370.756 280.993C369.676 281.068 368.68 281.087 368.708 279.736C368.736 278.386 369.499 278.302 370.57 278.237C371.641 278.172 373.215 278.814 373.261 279.578C373.308 280.342 371.846 280.9 370.756 280.993Z" fill="white"/>
<path d="M392.677 239.385C391.811 240.046 391.01 240.624 390.275 239.497C389.539 238.37 390.126 237.858 390.992 237.197C391.858 236.536 393.497 236.191 393.962 236.796C394.428 237.402 393.497 238.715 392.677 239.385Z" fill="white"/>
<path d="M379.836 255.234C379.64 256.305 379.417 257.273 378.113 256.919C376.809 256.566 376.921 255.802 377.116 254.722C377.312 253.642 378.327 252.31 379.072 252.45C379.817 252.589 380.041 254.163 379.836 255.234Z" fill="white"/>
<path d="M434.582 254.697C434.377 255.768 434.163 256.736 432.859 256.382C431.555 256.028 431.667 255.265 431.863 254.194C432.058 253.123 433.073 251.773 433.818 251.912C434.563 252.052 434.74 253.626 434.582 254.697Z" fill="white"/>
<path d="M419.293 272.667C419.097 273.738 418.874 274.707 417.57 274.353C416.266 273.999 416.378 273.235 416.573 272.165C416.769 271.094 417.784 269.743 418.529 269.883C419.274 270.023 419.498 271.596 419.293 272.667Z" fill="white"/>
<path d="M417.001 245.458C416.796 246.529 416.582 247.498 415.278 247.153C413.974 246.809 414.086 246.026 414.281 244.956C414.477 243.885 415.492 242.534 416.237 242.674C416.982 242.814 417.196 244.388 417.001 245.458Z" fill="white"/>
<path d="M384.295 258.131C384.659 259.165 384.957 260.105 383.653 260.459C382.349 260.813 382.061 260.086 381.688 259.053C381.316 258.019 381.52 256.352 382.247 256.101C382.973 255.849 383.886 257.107 384.295 258.131Z" fill="white"/>
<path d="M414.01 255.654C414.374 256.679 414.672 257.629 413.368 257.973C412.064 258.318 411.766 257.601 411.403 256.576C411.04 255.552 411.235 253.876 411.952 253.624C412.669 253.373 413.647 254.63 414.01 255.654Z" fill="white"/>
<path d="M436.034 269.287C436.398 270.312 436.696 271.261 435.392 271.606C434.088 271.95 433.799 271.233 433.436 270.209C433.073 269.185 433.259 267.509 433.986 267.257C434.712 267.006 435.671 268.263 436.034 269.287Z" fill="white"/>
<path d="M374.508 272.893C373.418 272.939 372.422 272.949 372.478 271.598C372.534 270.248 373.297 270.174 374.387 270.136C375.476 270.099 377.022 270.76 377.05 271.524C377.078 272.287 375.597 272.846 374.508 272.893Z" fill="white"/>
<path d="M429.711 258.551C428.622 258.598 427.635 258.598 427.681 257.247C427.728 255.897 428.51 255.832 429.6 255.785C430.689 255.739 432.226 256.419 432.263 257.182C432.3 257.946 430.801 258.505 429.711 258.551Z" fill="white"/>
<path d="M465.665 275.054C465.842 276.134 465.963 277.122 464.622 277.224C463.281 277.326 463.113 276.581 462.946 275.501C462.778 274.421 463.253 272.819 464.007 272.708C464.762 272.596 465.497 273.983 465.665 275.054Z" fill="white"/>
<path d="M420.996 274.654C420.195 273.918 419.478 273.229 420.465 272.298C421.452 271.367 422.039 271.87 422.849 272.596C423.659 273.322 424.283 274.896 423.78 275.455C423.277 276.014 421.806 275.408 420.996 274.654Z" fill="white"/>
<path d="M369.872 263.226C369.407 262.239 369.006 261.363 370.263 260.842C371.521 260.32 371.893 261.047 372.368 262.025C372.843 263.002 372.824 264.688 372.135 265.023C371.446 265.358 370.329 264.232 369.872 263.226Z" fill="white"/>
<path d="M447.665 272.865C448.736 273.06 449.695 273.284 449.341 274.587C448.987 275.891 448.224 275.779 447.153 275.574C446.082 275.37 444.732 274.364 444.871 273.619C445.011 272.874 446.594 272.66 447.665 272.865Z" fill="white"/>
<path d="M393.199 260.247C392.268 259.744 391.439 259.26 392.11 258.236C392.78 257.211 393.46 257.546 394.391 258.049C395.323 258.552 396.254 259.837 395.956 260.452C395.658 261.066 394.121 260.75 393.199 260.247Z" fill="white"/>
<path d="M416.34 227.141C415.409 227.691 414.599 228.156 414.059 227.067C413.519 225.977 414.152 225.549 415.055 225.009C415.958 224.469 417.56 224.273 417.914 224.869C418.268 225.465 417.253 226.601 416.34 227.141Z" fill="white"/>
<path d="M389.091 218.938C388.16 218.435 387.331 217.951 388.001 216.927C388.672 215.903 389.352 216.238 390.283 216.741C391.214 217.244 392.145 218.538 391.847 219.143C391.549 219.749 390.013 219.441 389.091 218.938Z" fill="white"/>
<path d="M429.926 228.622C428.995 228.119 428.175 227.626 428.846 226.611C429.516 225.596 430.187 225.922 431.118 226.425C432.049 226.927 432.98 228.212 432.692 228.818C432.403 229.423 430.857 229.125 429.926 228.622Z" fill="white"/>
<path d="M422.261 238.808C421.33 238.296 420.501 237.811 421.171 236.796C421.842 235.781 422.522 236.107 423.444 236.61C424.365 237.113 425.306 238.398 425.017 239.003C424.729 239.609 423.183 239.311 422.261 238.808Z" fill="white"/>
<path d="M377.181 224.432C376.697 223.398 376.25 222.439 377.451 222.029C378.653 221.619 378.988 222.337 379.463 223.379C379.938 224.422 380.003 226.173 379.37 226.425C378.737 226.676 377.656 225.475 377.181 224.432Z" fill="white"/>
<path d="M398.758 206.971C398.273 205.937 397.826 204.978 399.028 204.568C400.229 204.159 400.564 204.876 401.039 205.919C401.514 206.962 401.579 208.712 400.946 208.964C400.313 209.215 399.195 208.014 398.758 206.971Z" fill="white"/>
<path d="M349.002 232.569C348.583 231.638 348.22 230.809 349.244 230.446C350.269 230.083 350.595 230.716 351.023 231.638C351.451 232.56 351.489 234.068 350.93 234.32C350.371 234.571 349.431 233.444 349.002 232.569Z" fill="white"/>
<path d="M359.153 251.072C358.669 250.039 358.222 249.08 359.423 248.67C360.624 248.26 360.96 248.977 361.444 250.011C361.928 251.045 361.975 252.805 361.341 253.065C360.708 253.326 359.628 252.125 359.153 251.072Z" fill="white"/>
<path d="M368.745 238.417C368.996 237.299 369.248 236.284 370.421 236.657C371.594 237.029 371.455 237.839 371.213 238.957C370.971 240.074 369.965 241.471 369.285 241.322C368.605 241.173 368.466 239.534 368.745 238.417Z" fill="white"/>
<path d="M417.336 247.218C417.578 246.101 417.83 245.095 419.013 245.468C420.195 245.84 420.037 246.641 419.795 247.758C419.553 248.876 418.547 250.282 417.867 250.133C417.187 249.984 417.085 248.336 417.336 247.218Z" fill="white"/>
<path d="M379.239 267.174C379.509 266.066 379.779 265.06 380.953 265.461C382.126 265.861 381.958 266.653 381.698 267.761C381.437 268.869 380.403 270.257 379.724 270.098C379.044 269.94 378.979 268.292 379.239 267.174Z" fill="white"/>
<path d="M433.148 239.313C433.409 238.205 433.688 237.199 434.852 237.599C436.017 238 435.868 238.791 435.598 239.9C435.327 241.008 434.303 242.395 433.623 242.237C432.943 242.079 432.878 240.43 433.148 239.313Z" fill="white"/>
<path d="M372.785 227.39C372.785 226.245 372.832 225.211 374.061 225.332C375.29 225.453 375.318 226.263 375.309 227.409C375.3 228.554 374.61 230.137 373.912 230.128C373.214 230.118 372.776 228.535 372.785 227.39Z" fill="white"/>
<path d="M419.113 229.507C419.113 228.362 419.16 227.328 420.389 227.449C421.618 227.57 421.637 228.38 421.628 229.526C421.618 230.671 420.929 232.254 420.24 232.245C419.551 232.236 419.104 230.653 419.113 229.507Z" fill="white"/>
<path d="M452.154 231.638C452.154 230.493 452.154 229.459 453.43 229.58C454.706 229.701 454.687 230.511 454.678 231.657C454.669 232.802 453.98 234.376 453.281 234.376C452.583 234.376 452.145 232.746 452.154 231.638Z" fill="white"/>
<path d="M444.872 265.378C445.505 264.447 446.111 263.581 447.07 264.363C448.029 265.145 447.601 265.834 446.967 266.784C446.334 267.734 444.891 268.646 444.313 268.283C443.736 267.92 444.239 266.328 444.872 265.378Z" fill="white"/>
<path d="M287.16 269.595C287.058 270.526 286.928 271.458 285.764 271.197C284.6 270.936 284.637 270.266 284.739 269.334C284.842 268.403 285.67 267.118 286.304 267.193C286.937 267.267 287.263 268.636 287.16 269.595Z" fill="white"/>
<path d="M293.455 260.507C294.089 259.576 294.694 258.719 295.653 259.492C296.612 260.265 296.184 260.963 295.551 261.913C294.917 262.863 293.465 263.775 292.887 263.421C292.31 263.068 292.813 261.438 293.455 260.507Z" fill="white"/>
<path d="M458.877 248.905C458.542 249.995 458.207 250.982 457.015 250.516C455.823 250.051 456.083 249.259 456.419 248.17C456.754 247.08 457.871 245.758 458.532 245.963C459.194 246.167 459.212 247.816 458.877 248.905Z" fill="white"/>
<path d="M292.45 259.157C292.115 260.256 291.78 261.234 290.588 260.768C289.396 260.303 289.657 259.511 289.992 258.422C290.327 257.332 291.445 256.01 292.106 256.215C292.767 256.419 292.785 258.068 292.45 259.157Z" fill="white"/>
<path d="M450.897 266.858C452.033 266.718 453.067 266.616 453.113 267.854C453.16 269.093 452.35 269.214 451.251 269.363C450.152 269.512 448.457 269.028 448.374 268.338C448.29 267.649 449.761 267.025 450.897 266.858Z" fill="white"/>
<path d="M301.083 271.401C301.67 272.332 302.182 273.263 301.083 273.822C299.984 274.381 299.528 273.692 298.932 272.714C298.336 271.736 298.094 270.023 298.69 269.669C299.286 269.315 300.487 270.423 301.083 271.401Z" fill="white"/>
<path d="M277.867 257.88C278.463 258.858 278.975 259.743 277.867 260.311C276.759 260.879 276.303 260.171 275.716 259.193C275.129 258.216 274.878 256.511 275.474 256.148C276.07 255.785 277.281 256.903 277.867 257.88Z" fill="white"/>
<path d="M471.897 257.432C472.493 258.363 472.995 259.295 471.897 259.863C470.798 260.431 470.332 259.723 469.745 258.745C469.159 257.767 468.907 256.054 469.503 255.7C470.099 255.346 471.301 256.454 471.897 257.432Z" fill="white"/>
<path d="M289.312 264.939C288.38 264.259 287.57 263.616 288.38 262.694C289.191 261.773 289.88 262.229 290.792 262.909C291.705 263.588 292.59 265.069 292.18 265.628C291.77 266.187 290.243 265.618 289.312 264.939Z" fill="white"/>
<path d="M394.586 286.348C395.461 285.612 396.281 284.969 396.979 285.975C397.678 286.981 397.082 287.54 396.206 288.275C395.331 289.011 393.683 289.514 393.236 288.983C392.789 288.452 393.711 287.083 394.586 286.348Z" fill="white"/>
<path d="M363.26 277.491C364.303 277.947 365.243 278.422 364.647 279.475C364.052 280.527 363.297 280.257 362.245 279.801C361.193 279.344 360.019 278.087 360.299 277.454C360.578 276.821 362.208 277.035 363.26 277.491Z" fill="white"/>
<path d="M356.174 280.994C355.876 282.102 355.578 283.099 354.423 282.67C353.268 282.242 353.492 281.45 353.743 280.342C353.995 279.234 355.093 277.884 355.764 278.061C356.434 278.238 356.472 279.877 356.174 280.994Z" fill="white"/>
<path d="M317.248 225.873C318.179 226.525 319.017 227.149 318.179 228.089C317.341 229.03 316.698 228.592 315.758 227.94C314.817 227.288 313.895 225.826 314.305 225.249C314.715 224.672 316.316 225.221 317.248 225.873Z" fill="white"/>
<path d="M343.172 253.057C344.299 252.899 345.332 252.796 345.388 253.988C345.444 255.18 344.643 255.367 343.526 255.516C342.408 255.665 340.732 255.218 340.639 254.528C340.546 253.839 342.036 253.225 343.172 253.057Z" fill="white"/>
<path d="M358.818 286.08C359.749 286.704 360.625 287.3 359.861 288.268C359.097 289.237 358.39 288.808 357.431 288.184C356.471 287.56 355.568 286.126 355.903 285.54C356.239 284.953 357.859 285.446 358.818 286.08Z" fill="white"/>
<path d="M385.85 282.519C386.977 282.314 388.01 282.165 388.113 283.394C388.215 284.623 387.414 284.8 386.25 284.996C385.086 285.191 383.457 284.81 383.326 284.12C383.196 283.431 384.723 282.714 385.85 282.519Z" fill="white"/>
<path d="M331.774 283.406C332.268 284.431 332.706 285.38 331.542 285.818C330.378 286.256 329.996 285.529 329.502 284.505C329.009 283.481 328.925 281.711 329.549 281.451C330.173 281.19 331.272 282.373 331.774 283.406Z" fill="white"/>
<path d="M299.201 242.367C299.704 243.401 300.132 244.35 298.968 244.788C297.804 245.226 297.432 244.499 296.938 243.466C296.445 242.432 296.351 240.672 296.938 240.411C297.525 240.151 298.707 241.343 299.201 242.367Z" fill="white"/>
<path d="M296.389 246.268C297.32 245.617 298.205 245.049 298.81 246.119C299.415 247.19 298.763 247.684 297.823 248.336C296.882 248.988 295.197 249.332 294.806 248.764C294.415 248.196 295.448 246.911 296.389 246.268Z" fill="white"/>
<path d="M374.397 210.704C375.012 209.949 375.589 209.288 376.39 210.071C377.191 210.853 376.79 211.402 376.176 212.147C375.561 212.892 374.239 213.553 373.745 213.153C373.252 212.752 373.782 211.449 374.397 210.704Z" fill="white"/>
<path d="M364.554 211.757C365.141 212.53 365.653 213.247 364.704 213.852C363.754 214.458 363.316 213.918 362.729 213.154C362.143 212.39 361.798 210.938 362.32 210.556C362.841 210.174 363.968 210.994 364.554 211.757Z" fill="white"/>
<path d="M351.088 217.886C352.019 218.016 352.951 218.165 352.671 219.255C352.392 220.344 351.74 220.288 350.809 220.186C349.877 220.083 348.602 219.254 348.686 218.64C348.769 218.025 350.129 217.755 351.088 217.886Z" fill="white"/>
<path d="M352.477 214.27C353.082 213.516 353.66 212.855 354.47 213.637C355.28 214.419 354.861 214.969 354.246 215.714C353.632 216.459 352.309 217.12 351.825 216.719C351.341 216.319 351.862 215.015 352.477 214.27Z" fill="white"/>
<path d="M361.387 227.355C362.318 227.504 363.25 227.662 362.952 228.752C362.654 229.842 362.02 229.767 361.043 229.627C360.065 229.488 358.854 228.696 358.947 228.044C359.041 227.392 360.428 227.216 361.387 227.355Z" fill="white"/>
<path d="M357.076 219.906C357.076 218.975 357.123 218.044 358.231 218.165C359.339 218.286 359.376 218.956 359.376 219.925C359.376 220.893 358.743 222.225 358.11 222.225C357.477 222.225 357.076 220.875 357.076 219.906Z" fill="white"/>
<path d="M369.648 224.777C368.381 224.339 367.245 223.911 367.832 222.616C368.418 221.322 369.322 221.592 370.625 222.03C371.929 222.467 373.419 223.799 373.121 224.563C372.823 225.326 370.905 225.215 369.648 224.777Z" fill="white"/>
<path d="M413.433 218.908C412.176 218.47 411.04 218.042 411.617 216.747C412.195 215.453 413.117 215.723 414.411 216.161C415.706 216.598 417.205 217.93 416.907 218.693C416.609 219.457 414.7 219.345 413.433 218.908Z" fill="white"/>
<path d="M421.88 220.222C420.614 219.784 419.478 219.356 420.018 218.062C420.558 216.767 421.508 217.037 422.811 217.475C424.115 217.913 425.605 219.244 425.307 219.999C425.009 220.753 423.137 220.651 421.88 220.222Z" fill="white"/>
<path d="M410.473 253.505C410.38 254.827 410.259 256.029 408.843 255.796C407.428 255.563 407.465 254.623 407.558 253.3C407.651 251.978 408.554 250.199 409.355 250.255C410.156 250.311 410.566 252.183 410.473 253.505Z" fill="white"/>
<path d="M422.085 224.523C421.992 225.845 421.871 227.046 420.465 226.814C419.058 226.581 419.077 225.64 419.17 224.318C419.263 222.996 420.167 221.217 420.977 221.273C421.787 221.329 422.178 223.2 422.085 224.523Z" fill="white"/>
<path d="M306.223 231.787C306.726 232.811 307.154 233.761 306.009 234.208C304.863 234.655 304.472 233.938 303.96 232.914C303.448 231.889 303.355 230.12 303.96 229.859C304.565 229.599 305.71 230.763 306.223 231.787Z" fill="white"/>
<path d="M344.989 240.019C344.486 241.053 344.002 241.966 342.95 241.332C341.897 240.699 342.223 239.945 342.717 238.921C343.21 237.896 344.523 236.76 345.147 237.058C345.771 237.356 345.482 238.995 344.989 240.019Z" fill="white"/>
<path d="M357.69 242.814C357.69 243.95 357.69 244.993 356.414 244.872C355.138 244.751 355.166 243.941 355.166 242.795C355.166 241.65 355.855 240.076 356.554 240.076C357.252 240.076 357.69 241.641 357.69 242.814Z" fill="white"/>
<path d="M349.254 244.48C350.055 243.661 350.8 242.934 351.601 243.875C352.402 244.815 351.862 245.411 351.061 246.231C350.26 247.05 348.677 247.721 348.183 247.237C347.69 246.752 348.463 245.3 349.254 244.48Z" fill="white"/>
<path d="M352.867 258.271C352.113 257.414 351.452 256.613 352.448 255.887C353.444 255.16 354.003 255.747 354.757 256.604C355.512 257.461 356.061 259.099 355.54 259.556C355.018 260.012 353.631 259.127 352.867 258.271Z" fill="white"/>
<path d="M333.219 247.376C333.07 246.24 332.967 245.207 334.196 245.16C335.426 245.114 335.565 245.905 335.714 247.023C335.863 248.14 335.407 249.816 334.718 249.909C334.029 250.002 333.368 248.503 333.219 247.376Z" fill="white"/>
<path d="M335.761 262.004C334.913 261.241 334.168 260.514 335.081 259.685C335.994 258.857 336.608 259.378 337.456 260.142C338.303 260.905 339.02 262.479 338.554 262.991C338.089 263.503 336.608 262.777 335.761 262.004Z" fill="white"/>
<path d="M340.332 271.235C340.099 270.108 339.922 269.084 341.152 268.954C342.381 268.823 342.567 269.605 342.8 270.723C343.033 271.84 342.688 273.517 341.999 273.675C341.31 273.833 340.528 272.353 340.332 271.235Z" fill="white"/>
<path d="M364.741 265.554C365.569 264.772 366.352 264.083 367.106 265.051C367.86 266.019 367.301 266.606 366.463 267.388C365.625 268.171 364.014 268.767 363.539 268.264C363.064 267.761 363.902 266.336 364.741 265.554Z" fill="white"/>
<path d="M349.477 277.342C349.021 278.394 348.546 279.326 347.494 278.739C346.441 278.152 346.711 277.379 347.168 276.336C347.624 275.293 348.881 274.111 349.524 274.381C350.166 274.651 349.933 276.336 349.477 277.342Z" fill="white"/>
<path d="M319.037 262.919C318.106 263.515 317.175 264.037 316.616 262.919C316.058 261.802 316.747 261.364 317.715 260.768C318.684 260.172 320.397 259.911 320.76 260.507C321.123 261.103 320.043 262.37 319.037 262.919Z" fill="white"/>
<path d="M330.118 269.531C329.271 268.758 328.526 268.031 329.438 267.203C330.351 266.374 330.966 266.895 331.813 267.668C332.66 268.441 333.377 270.006 332.903 270.518C332.428 271.03 330.966 270.294 330.118 269.531Z" fill="white"/>
<path d="M335.873 280.762C334.82 281.218 333.861 281.6 333.47 280.426C333.079 279.253 333.824 278.899 334.867 278.452C335.91 278.005 337.661 277.986 337.921 278.62C338.182 279.253 336.869 280.305 335.873 280.762Z" fill="white"/>
<path d="M301.509 283.025C300.401 282.736 299.405 282.448 299.815 281.284C300.224 280.12 301.035 280.297 302.133 280.585C303.232 280.874 304.61 281.917 304.434 282.597C304.257 283.276 302.618 283.314 301.509 283.025Z" fill="white"/>
<path d="M321.039 280.312C322.072 279.837 323.031 279.427 323.441 280.591C323.851 281.755 323.125 282.128 322.082 282.603C321.039 283.078 319.288 283.124 319.036 282.491C318.785 281.858 320.042 280.787 321.039 280.312Z" fill="white"/>
<path d="M296.454 277.595C295.588 276.841 294.833 276.133 295.718 275.285C296.603 274.438 297.245 274.941 298.111 275.695C298.977 276.45 299.722 277.995 299.257 278.489C298.791 278.982 297.311 278.349 296.454 277.595Z" fill="white"/>
<path d="M292.702 276.486C291.864 275.713 291.119 274.996 292.022 274.158C292.925 273.32 293.559 273.851 294.406 274.624C295.253 275.396 295.961 276.961 295.496 277.473C295.03 277.985 293.549 277.268 292.702 276.486Z" fill="white"/>
<path d="M321.513 267.714C321.019 266.68 320.582 265.73 321.755 265.302C322.928 264.874 323.292 265.591 323.785 266.615C324.279 267.639 324.363 269.409 323.729 269.669C323.096 269.93 322.016 268.738 321.513 267.714Z" fill="white"/>
<path d="M318.31 275.118C317.816 274.085 317.379 273.135 318.552 272.706C319.725 272.278 320.088 272.995 320.582 274.019C321.076 275.044 321.159 276.813 320.526 277.074C319.893 277.335 318.813 276.143 318.31 275.118Z" fill="white"/>
<path d="M321.811 250.514C321.653 249.378 321.55 248.354 322.742 248.298C323.934 248.242 324.12 249.052 324.269 250.16C324.418 251.268 323.962 252.954 323.264 253.047C322.565 253.14 321.96 251.65 321.811 250.514Z" fill="white"/>
<path d="M332.194 213.014C332.967 212.176 333.702 211.441 334.522 212.363C335.341 213.285 334.811 213.899 334.038 214.737C333.265 215.575 331.682 216.264 331.169 215.789C330.657 215.315 331.412 213.815 332.194 213.014Z" fill="white"/>
<path d="M328.236 258.485C329.009 257.647 329.745 256.911 330.564 257.833C331.384 258.755 330.853 259.37 330.08 260.208C329.307 261.046 327.724 261.735 327.212 261.27C326.7 260.804 327.491 259.323 328.236 258.485Z" fill="white"/>
<path d="M397.473 280.611C397.408 281.542 397.324 282.427 396.3 282.259C395.275 282.092 395.303 281.421 395.369 280.462C395.434 279.503 396.095 278.227 396.672 278.264C397.25 278.302 397.538 279.652 397.473 280.611Z" fill="white"/>
<path d="M370.803 229.469C370.439 230.475 370.067 231.378 369.024 230.885C367.981 230.391 368.214 229.665 368.586 228.659C368.959 227.653 370.058 226.48 370.672 226.703C371.287 226.927 371.175 228.463 370.803 229.469Z" fill="white"/>
<path d="M465.181 236.734C464.613 235.802 464.11 234.992 465.135 234.461C466.159 233.931 466.597 234.564 467.174 235.467C467.751 236.37 468.022 237.963 467.472 238.261C466.923 238.559 465.759 237.637 465.181 236.734Z" fill="white"/>
<path d="M337.176 229.198C336.114 229.049 335.155 228.881 335.425 227.754C335.695 226.628 336.449 226.711 337.511 226.823C338.573 226.935 339.951 227.754 339.858 228.443C339.765 229.132 338.237 229.347 337.176 229.198Z" fill="white"/>
<path d="M329.559 236.956C328.739 237.636 327.967 238.232 327.315 237.282C326.663 236.332 327.231 235.82 328.05 235.131C328.87 234.442 330.425 233.986 330.844 234.489C331.263 234.992 330.388 236.295 329.559 236.956Z" fill="white"/>
<path d="M398.487 249.957C397.472 250.506 396.522 250.963 395.954 249.659C395.386 248.355 396.094 247.936 397.118 247.396C398.142 246.856 399.912 246.781 400.303 247.489C400.694 248.197 399.511 249.417 398.487 249.957Z" fill="white"/>
<path d="M400.191 231.248C399.586 230.27 399.064 229.385 400.331 228.705C401.597 228.026 402.063 228.705 402.668 229.72C403.273 230.735 403.46 232.514 402.77 232.896C402.081 233.278 400.806 232.235 400.191 231.248Z" fill="white"/>
<path d="M407.428 233.948C408.489 234.423 409.43 234.88 408.75 236.137C408.07 237.394 407.297 237.068 406.236 236.602C405.174 236.137 404.038 234.74 404.373 234.032C404.709 233.325 406.375 233.501 407.428 233.948Z" fill="white"/>
<path d="M427.783 347.994C427.984 347.994 428.146 347.831 428.146 347.631C428.146 347.43 427.984 347.268 427.783 347.268C427.583 347.268 427.42 347.43 427.42 347.631C427.42 347.831 427.583 347.994 427.783 347.994Z" fill="black"/>
<path d="M375.766 336.69C375.926 336.69 376.055 336.594 376.055 336.476C376.055 336.358 375.926 336.262 375.766 336.262C375.607 336.262 375.478 336.358 375.478 336.476C375.478 336.594 375.607 336.69 375.766 336.69Z" fill="black"/>
<path d="M331.923 341.624C332.16 341.624 332.352 341.433 332.352 341.196C332.352 340.959 332.16 340.768 331.923 340.768C331.687 340.768 331.495 340.959 331.495 341.196C331.495 341.433 331.687 341.624 331.923 341.624Z" fill="black"/>
<path d="M409.131 344.158C409.368 344.158 409.56 343.966 409.56 343.729C409.56 343.493 409.368 343.301 409.131 343.301C408.895 343.301 408.703 343.493 408.703 343.729C408.703 343.966 408.895 344.158 409.131 344.158Z" fill="black"/>
<path d="M341.702 343.664C342.057 343.664 342.345 343.501 342.345 343.301C342.345 343.1 342.057 342.938 341.702 342.938C341.347 342.938 341.06 343.1 341.06 343.301C341.06 343.501 341.347 343.664 341.702 343.664Z" fill="black"/>
<path d="M444.733 335.88C444.97 335.88 445.161 335.688 445.161 335.452C445.161 335.215 444.97 335.023 444.733 335.023C444.496 335.023 444.305 335.215 444.305 335.452C444.305 335.688 444.496 335.88 444.733 335.88Z" fill="black"/>
<path d="M478.544 324.993C478.863 324.993 479.122 324.734 479.122 324.415C479.122 324.096 478.863 323.838 478.544 323.838C478.225 323.838 477.967 324.096 477.967 324.415C477.967 324.734 478.225 324.993 478.544 324.993Z" fill="black"/>
<path d="M367.59 337.612C367.909 337.612 368.167 337.353 368.167 337.034C368.167 336.716 367.909 336.457 367.59 336.457C367.271 336.457 367.013 336.716 367.013 337.034C367.013 337.353 367.271 337.612 367.59 337.612Z" fill="black"/>
<path d="M452.749 346.43C453.027 346.43 453.252 346.204 453.252 345.927C453.252 345.649 453.027 345.424 452.749 345.424C452.471 345.424 452.246 345.649 452.246 345.927C452.246 346.204 452.471 346.43 452.749 346.43Z" fill="black"/>
<path d="M349.255 351.449C349.491 351.449 349.683 351.257 349.683 351.02C349.683 350.784 349.491 350.592 349.255 350.592C349.018 350.592 348.826 350.784 348.826 351.02C348.826 351.257 349.018 351.449 349.255 351.449Z" fill="black"/>
<path d="M484.234 332.154C484.471 332.154 484.662 331.962 484.662 331.725C484.662 331.489 484.471 331.297 484.234 331.297C483.997 331.297 483.806 331.489 483.806 331.725C483.806 331.962 483.997 332.154 484.234 332.154Z" fill="black"/>
<path d="M318.151 347.837C318.388 347.837 318.579 347.645 318.579 347.409C318.579 347.172 318.388 346.98 318.151 346.98C317.914 346.98 317.723 347.172 317.723 347.409C317.723 347.645 317.914 347.837 318.151 347.837Z" fill="black"/>
<path d="M479.16 340.052C479.396 340.052 479.588 339.86 479.588 339.624C479.588 339.387 479.396 339.195 479.16 339.195C478.923 339.195 478.731 339.387 478.731 339.624C478.731 339.86 478.923 340.052 479.16 340.052Z" fill="black"/>
<path d="M275.037 338.999C275.273 338.999 275.465 338.808 275.465 338.571C275.465 338.334 275.273 338.143 275.037 338.143C274.8 338.143 274.608 338.334 274.608 338.571C274.608 338.808 274.8 338.999 275.037 338.999Z" fill="black"/>
<path d="M280.279 333.16C280.48 333.16 280.642 332.997 280.642 332.797C280.642 332.596 280.48 332.434 280.279 332.434C280.079 332.434 279.916 332.596 279.916 332.797C279.916 332.997 280.079 333.16 280.279 333.16Z" fill="black"/>
<path d="M365.961 353.329C366.274 353.329 366.529 353.075 366.529 352.761C366.529 352.448 366.274 352.193 365.961 352.193C365.647 352.193 365.393 352.448 365.393 352.761C365.393 353.075 365.647 353.329 365.961 353.329Z" fill="black"/>
<path d="M398.609 353.618C399.082 353.618 399.465 353.234 399.465 352.761C399.465 352.288 399.082 351.904 398.609 351.904C398.136 351.904 397.752 352.288 397.752 352.761C397.752 353.234 398.136 353.618 398.609 353.618Z" fill="black"/>
<path d="M274.504 324.221C274.9 324.221 275.221 323.9 275.221 323.504C275.221 323.108 274.9 322.787 274.504 322.787C274.108 322.787 273.787 323.108 273.787 323.504C273.787 323.9 274.108 324.221 274.504 324.221Z" fill="black"/>
<path d="M331.57 351.756C332.12 351.756 332.566 351.31 332.566 350.76C332.566 350.21 332.12 349.764 331.57 349.764C331.019 349.764 330.573 350.21 330.573 350.76C330.573 351.31 331.019 351.756 331.57 351.756Z" fill="black"/>
<path d="M468.553 320.161C468.949 320.161 469.27 319.84 469.27 319.444C469.27 319.048 468.949 318.727 468.553 318.727C468.157 318.727 467.836 319.048 467.836 319.444C467.836 319.84 468.157 320.161 468.553 320.161Z" fill="black"/>
<path d="M282.718 348.013C283.032 348.013 283.287 347.759 283.287 347.445C283.287 347.131 283.032 346.877 282.718 346.877C282.405 346.877 282.15 347.131 282.15 347.445C282.15 347.759 282.405 348.013 282.718 348.013Z" fill="black"/>
<path d="M288.632 342.176C289.172 342.176 289.61 341.739 289.61 341.199C289.61 340.659 289.172 340.221 288.632 340.221C288.092 340.221 287.654 340.659 287.654 341.199C287.654 341.739 288.092 342.176 288.632 342.176Z" fill="black"/>
<path d="M388.022 342.176C388.562 342.176 388.999 341.739 388.999 341.199C388.999 340.659 388.562 340.221 388.022 340.221C387.482 340.221 387.044 340.659 387.044 341.199C387.044 341.739 387.482 342.176 388.022 342.176Z" fill="black"/>
<path d="M463.746 339.549C464.286 339.549 464.724 339.112 464.724 338.572C464.724 338.032 464.286 337.594 463.746 337.594C463.206 337.594 462.769 338.032 462.769 338.572C462.769 339.112 463.206 339.549 463.746 339.549Z" fill="black"/>
<path d="M468.552 350.248C469.308 350.248 469.921 349.635 469.921 348.879C469.921 348.123 469.308 347.51 468.552 347.51C467.796 347.51 467.184 348.123 467.184 348.879C467.184 349.635 467.796 350.248 468.552 350.248Z" fill="black"/>
<path d="M197.987 375.093C198.164 376.089 198.538 377.04 199.088 377.889C199.639 378.738 200.353 379.469 201.19 380.037C204.85 382.515 211.992 386.398 220.82 386.398C228.182 386.249 235.366 384.106 241.605 380.196C242.576 379.602 243.402 378.798 244.024 377.845C244.646 376.891 245.048 375.811 245.2 374.683L249.642 328.541H191.999L197.987 375.093Z" fill="#FFEDB3"/>
<path d="M220.82 337.518C236.738 337.518 249.642 333.499 249.642 328.541C249.642 323.584 236.738 319.564 220.82 319.564C204.903 319.564 191.999 323.584 191.999 328.541C191.999 333.499 204.903 337.518 220.82 337.518Z" fill="#ED5E3B" stroke="#FFC501" stroke-width="3.72488" stroke-miterlimit="10"/>
<path d="M194.979 330.039L191.915 327.292C191.247 326.692 190.731 325.941 190.411 325.102C190.091 324.263 189.976 323.36 190.076 322.468C190.175 321.575 190.486 320.719 190.982 319.971C191.479 319.223 192.147 318.604 192.93 318.166C196.525 316.136 201.721 314.757 208.342 317.179C220.588 321.667 229.546 319.283 234.658 316.75C236.336 315.921 238.214 315.587 240.074 315.787C241.934 315.986 243.699 316.711 245.163 317.877L248.683 320.671C249.319 321.176 249.821 321.831 250.141 322.578C250.462 323.325 250.593 324.14 250.521 324.95C250.449 325.759 250.176 326.539 249.729 327.217C249.281 327.896 248.672 328.453 247.956 328.837C245.739 330.046 243.385 330.984 240.944 331.631C232.926 333.782 194.979 330.039 194.979 330.039Z" fill="#ED5E3B"/>
</g>
<defs>
<clipPath id="clip0_715_6654">
<rect width="553" height="454" fill="white"/>
</clipPath>
</defs>
</svg>
