<?xml version="1.0" encoding="UTF-8"?><svg id="Layer_2" xmlns="http://www.w3.org/2000/svg" viewBox="0 0 593.29 476.88"><defs><style>.cls-1{fill:#ed5e3b;}.cls-2{fill:#eeb36a;}.cls-3{fill:#ffedb3;}.cls-4{fill:#fff8e6;}.cls-5{fill:#ffc501;}.cls-6{fill:#fef9e5;}.cls-7{fill:#ffb3ce;}.cls-8{fill:#993832;}.cls-9{fill:#312423;}.cls-10{fill:#e0c886;}.cls-11{fill:#05aa70;}.cls-12{fill:#141414;}.cls-13{fill:#0c513f;}.cls-14{fill:#3d7465;}.cls-15{fill:#93d0ac;}</style></defs><g id="Layer_1-2"><g><path class="cls-15" d="M22.71,103.28S29.69,23.11,110.98,0l93.19,1.3s75.82,20.93,81.03,99.21l-262.5,2.76h.01Z"/><path class="cls-15" d="M289.79,129.14l-5.78,39.83-11.76,81-4.84,33.27-10.4,71.66-6.94,47.73-8.15,56.14c-.3,2.08-1.63,3.98-3.7,5.17-7.39,4.26-29.5,12.79-88.13,12.94-51.77,.13-78.7-7.92-87.8-11.35-2.23-.84-3.74-2.63-3.96-4.67l-3.54-29.64-8.35-69.77-9.12-76.32-4.86-40.63-10.7-89.47-2.7-22.54,270.73-3.35h0Z"/><path class="cls-11" d="M9.25,107.05l-2.34,13.47c-.28,1.89-1.04,3.68-2.2,5.2L.12,131.74c-.3,.39-.02,.96,.48,.95l307.47-3.55c.34,0,.55-.38,.37-.67l-2.23-3.52c-1.06-1.68-1.69-3.6-1.83-5.59l-2.29-15.13c-.18-2.71-2.43-4.83-5.15-4.84L14.55,102.5c-2.66-.02-4.92,1.92-5.31,4.55h.01Z"/><g><path class="cls-13" d="M62.63,193.41l-3.69,17.27c-.05,.25,.25,.4,.42,.22l4.97-5.39c.12-.13,.34-.09,.41,.08l6.34,15.71c.1,.24,.44,.19,.47-.06,.55-4.16,2.6-21.29-.07-29.03"/><path class="cls-13" d="M75.18,191.8s12.72,5.34,19.03,13.59c.35,.46,.09,1.12-.48,1.21-4.01,.61-16.99,1.45-21.48-12.19"/><path class="cls-13" d="M74.42,190.3l11.73,24.73c.26,.54-.15,1.16-.74,1.14-4.1-.14-16.84-2.35-19.85-24.22"/><path class="cls-1" d="M42.96,186.59s-13-41.27,12.05-49.3c0,0,15.47-5.71,26.38,11.92,10.91,17.63,20.9,33.87-.65,44-30.54,14.37-37.78-6.63-37.78-6.63h0Z"/><ellipse class="cls-13" cx="49.38" cy="185.37" rx="1.79" ry="2.73" transform="translate(-1.94 .53) rotate(-.6)"/><ellipse class="cls-13" cx="70.24" cy="182.42" rx="2.73" ry="1.89" transform="translate(-1.91 .75) rotate(-.6)"/><ellipse class="cls-3" cx="53.9" cy="155.52" rx="1.82" ry="2.87" transform="translate(-1.63 .57) rotate(-.6)"/><ellipse class="cls-3" cx="75.37" cy="161.38" rx="2.63" ry="1.89" transform="translate(-1.69 .8) rotate(-.6)"/><ellipse class="cls-13" cx="43.38" cy="164.96" rx="1.26" ry="2.84" transform="translate(-1.73 .46) rotate(-.6)"/><ellipse class="cls-3" cx="67.08" cy="141.29" rx="3.15" ry="1.47" transform="translate(-1.48 .71) rotate(-.6)"/><ellipse class="cls-3" cx="90.07" cy="180.33" rx="1.58" ry="2.73" transform="translate(-1.88 .95) rotate(-.6)"/></g><path class="cls-6" d="M284.01,168.97l-11.76,81-4.84,33.27-10.4,71.66-6.94,47.73-8.15,56.14c-.3,2.08-1.63,3.98-3.7,5.17-7.39,4.26-29.5,12.79-88.13,12.94-51.77,.13-78.7-7.92-87.8-11.35-2.23-.84-3.74-2.63-3.96-4.67l-3.54-29.64-8.35-69.77-9.12-76.32-4.86-40.63-10.7-89.47c7.22-1.22,21.17-1.92,31.09,7.87,35.94,35.46,45.42,7.02,80.6,6.65,36.21-.38,40.9,24.56,96.78,1.91,21.27-8.62,39.16-6.12,53.78-2.49h0Z"/><g><path class="cls-13" d="M143.74,149.26l2.46-14.63c.04-.21,.32-.24,.4-.04l2.21,5.75c.05,.14,.24,.18,.34,.07l9.81-10.31c.15-.15,.4-.01,.35,.19-.85,3.42-4.55,17.43-9.03,22.65"/><path class="cls-13" d="M153.05,154.4s11.59-.24,19.07-4.73c.42-.25,.42-.85,0-1.09-2.94-1.72-12.82-6.39-20.55,2.87"/><path class="cls-13" d="M152,155.34l16.81-15.69c.37-.34,.25-.95-.23-1.12-3.24-1.16-13.88-3.37-22.99,12.78"/><path class="cls-1" d="M126.28,148.51s-22.92,28.21-5.83,42.23c0,0,10.32,9.24,24.29-1.16,13.97-10.4,26.79-19.99,13.1-34.57-19.41-20.67-31.56-6.51-31.56-6.51h0Z"/><ellipse class="cls-3" cx="130.93" cy="151.46" rx="2.29" ry="1.5" transform="translate(-58.78 215.45) rotate(-67.8)"/><ellipse class="cls-3" cx="146.31" cy="160.21" rx="1.59" ry="2.29" transform="translate(-57.31 235.14) rotate(-67.8)"/><ellipse class="cls-3" cx="125.23" cy="176.18" rx="2.41" ry="1.53" transform="translate(-85.21 225.56) rotate(-67.8)"/><ellipse class="cls-3" cx="143.81" cy="178.25" rx="1.59" ry="2.21" transform="translate(-75.56 244.05) rotate(-67.8)"/><ellipse class="cls-3" cx="119.94" cy="165.55" rx="2.38" ry="1.06" transform="translate(-78.66 214.05) rotate(-67.8)"/><ellipse class="cls-3" cx="131.12" cy="191.36" rx="1.23" ry="2.65" transform="translate(-95.6 240.46) rotate(-67.8)"/><ellipse class="cls-3" cx="161.15" cy="167.99" rx="2.29" ry="1.32" transform="translate(-55.27 253.72) rotate(-67.8)"/></g><g><path class="cls-8" d="M211.11,173.75c.1,9.13-9.19,15.72-16.17,15.79-8.88,.09-14.24-5.2-14.33-14.34-.1-9.13,7.99-17.24,16.88-17.34s13.53,6.75,13.63,15.89h-.01Z"/><path class="cls-9" d="M192.44,182.22c0,.32-.15,.62-.26,.9s-.21,.61-.42,.84-.53,.33-.82,.46-.57,.29-.89,.29-.62-.15-.9-.27-.61-.22-.83-.44-.32-.54-.44-.83-.28-.57-.28-.9,.15-.62,.26-.9,.21-.61,.42-.84,.53-.33,.82-.46,.57-.29,.89-.29,.62,.15,.9,.27,.61,.22,.83,.44,.32,.54,.44,.83,.28,.57,.28,.9Z"/></g><g><path class="cls-5" d="M82.08,396.4c.08,8.03-2.5,15.46-6.92,21.44-4.9,6.64-12.07,11.5-20.37,13.38l-8.35-69.77c.07-.01,.14-.01,.21-.01,11.14-.12,21.12,5.02,27.62,13.11,4.81,5.97,7.72,13.56,7.81,21.85h0Z"/><ellipse class="cls-5" cx="99.32" cy="395.69" rx="32.68" ry="32.93" transform="translate(-4.14 1.06) rotate(-.6)"/><path class="cls-5" d="M257.01,354.9l-6.94,47.73c-4.05-.81-7.71-2.98-10.6-6.1-4.08-4.37-6.66-10.6-6.73-17.54-.03-2.72,.33-5.34,1.02-7.78,2.69-9.59,10.4-16.55,19.57-16.65,1.25-.01,2.48,.1,3.68,.34h0Z"/><path class="cls-12" d="M99.66,385.62c.03-.39,.72-.35,.75,.05,.41,4.63,.78,9.23,10.23,8.39,.57-.05,.56,.93,.01,1.1-3.1,.93-5.1,2.89-4.58,11.7,0,.14-.18,.18-.22,.05-1.04-3.19-4.03-13.51-10.72-.78-.09,.17-.35,.02-.28-.16,1.06-2.58,2.53-8.13-3.89-9.31-.38-.07-.42-.58-.05-.7,2.82-.91,8.14-1.9,8.76-10.34h-.01Z"/><g><ellipse class="cls-5" cx="213.04" cy="389.91" rx="27.13" ry="28.97" transform="translate(-4.07 2.25) rotate(-.6)"/><path class="cls-12" d="M206.67,383.82c-.32-.18-.57,.37-.27,.58,2.27,1.58,5.38,3.9,5.39,4.84,.01,1.01-3.27,4.13-5.35,5.99-.27,.25,.01,.68,.35,.53,3.44-1.53,9.41-8.11,16.22-5.09,.29,.13,.39-.44,.12-.6-1.75-.98-4.72-3.46-1.49-7.98,.2-.28-.12-.65-.42-.47-2.79,1.67-5.7,7.23-14.55,2.2h0Z"/></g><g><ellipse class="cls-5" cx="163.76" cy="403.56" rx="33.93" ry="35" transform="translate(-4.22 1.74) rotate(-.6)"/><path class="cls-12" d="M163.14,389.73c-1.55,1.97-2.72,4.15-4.77,11.3-.04,.15-.11,.29-.26,.34l-6.58,1.96c-.36,.11-.35,.63,.01,.72l6.29,.35c.21,.05,.54,1.56,.47,1.76l-2.63,8.67c-.12,.4,.4,.67,.65,.34,1.84-2.43,2.81-7.44,6.62-7.96,3.03-.41,5.02,5.03,6.98,6.6,.31,.25,.74-.09,.57-.45-1.34-2.8-5.2-9.03,2.47-15.25,.31-.25-.09-.75-.45-.57-3.53,1.75-10.88,5.88-8.72-7.49,.06-.38-.42-.61-.66-.3v-.02Z"/></g></g><g><path class="cls-3" d="M53.4,264.85c.03,2.53-.4,4.95-1.22,7.2-2.36,6.54-7.95,11.55-14.86,13.08l-4.86-40.63s.1-.01,.15-.01c5.32-.06,10.19,1.91,13.87,5.18,4.19,3.73,6.86,9.14,6.92,15.18h0Z"/><circle class="cls-3" cx="65.84" cy="256.66" r="20.57"/><circle class="cls-3" cx="101.68" cy="262.99" r="20.57"/><circle class="cls-3" cx="141.84" cy="258.14" r="23.22"/><circle class="cls-3" cx="177.52" cy="266.24" r="17.91"/><circle class="cls-3" cx="205.58" cy="255.66" r="17.91"/><circle class="cls-3" cx="240.54" cy="253.06" r="25.35"/><path class="cls-3" d="M272.25,249.97l-4.84,33.27c-5.49-.9-10.08-4.48-12.42-9.35-1.03-2.14-1.61-4.54-1.64-7.07-.08-7.82,5.18-14.45,12.39-16.4,1.35-.37,2.78-.58,4.25-.59,.77-.01,1.53,.04,2.26,.14Z"/></g></g><g><path class="cls-2" d="M234.9,472.3l343.36-6.14c5.45-.1,9.78-4.63,9.63-10.08l-.6-21.17c-.07-2.35-2.01-4.21-4.36-4.17l-353.87,5.52c-2.37,.04-4.27,1.99-4.23,4.36l.36,22.12c.09,5.3,4.41,9.56,9.71,9.56h0Z"/><path class="cls-7" d="M237.78,437.46l334.15-5.4c8.89-.14,15.97-7.46,15.83-16.35l-.28-17.13-366.49,5.93,.44,17.27c.23,8.83,7.52,15.82,16.35,15.68h0Z"/><path class="cls-14" d="M362.26,400.34s11.47,27.65,26.83,24.11c0,0,14.11,18.75,29.04,1.92,0,0,29.06,5.62,33.03-20.49l3.97-26.11"/><path class="cls-1" d="M228.14,394.06s-29.84,23.75,20.98,28.83c0,0,15.52,16.28,30.34,6.65,0,0,35.43,6.55,36.37-13.61"/><path class="cls-1" d="M532.1,396.16s25.37,28.47-25.57,24.85c0,0-18.05,13.41-31.03,1.4,0,0-36.83,3.69-35.18-24.09"/><path class="cls-1" d="M584.48,368.66s22.22,22.34-3.92,43.37c-15.07,12.12-48.01,4.42-45.52-15.62"/><path class="cls-5" d="M421.57,400.24l-98.82,48.37c-5.46,2.21-11.7-.27-14.14-5.64l-32.75-37.9s-28.94-4.84-8.73-6.46l278.27-4.94s3.26,6.04-8.72,5.77l-28.53,36.29c-2.41,3.02-7,3.03-9.41,.01l-28.69-35.85-48.47,.35h-.01Z"/><g><path class="cls-2" d="M235.69,402.97l337.07-7.95c7.05-.17,12.6-6.05,12.36-13.1l-1.1-30.36-361.69,9.7,1.29,30.39c.26,6.44,5.63,11.48,12.08,11.33h-.01Z"/><path class="cls-3" d="M227.31,353.12l224.62-88.43c7.79-3.07,16.61-1.99,23.43,2.88l107.18,76.44c4.57,9.86-2.48,21.16-13.34,21.4l-336.12,7.28c-10.78,.23-14.95-13.92-5.78-19.58h.01Z"/></g><g><ellipse class="cls-4" cx="426.8" cy="338.28" rx="2.21" ry="1.33"/><ellipse class="cls-10" cx="540.66" cy="352.94" rx="2.21" ry="1.33"/><ellipse class="cls-10" cx="466.59" cy="332.26" rx="2.21" ry="1.33"/><ellipse class="cls-4" cx="499" cy="354.39" rx="2.21" ry="1.33"/><ellipse class="cls-10" cx="502.35" cy="332.38" rx="2.21" ry="1.33"/><ellipse class="cls-4" cx="531.77" cy="329.61" rx="2.21" ry="1.33"/><ellipse class="cls-10" cx="455.69" cy="351.27" rx="2.21" ry="1.33"/><ellipse class="cls-4" cx="380.93" cy="322.15" rx="2.21" ry="1.33"/><ellipse class="cls-10" cx="408.46" cy="324.61" rx="2.21" ry="1.33"/><ellipse class="cls-10" cx="504" cy="302.05" rx="2.21" ry="1.33"/><ellipse class="cls-4" cx="416.24" cy="298.5" rx="2.21" ry="1.33"/><ellipse class="cls-10" cx="439.56" cy="312.39" rx="2.21" ry="1.33"/><ellipse class="cls-10" cx="439.57" cy="274.28" rx="2.21" ry="1.33"/><ellipse class="cls-10" cx="395.7" cy="362.38" rx="2.21" ry="1.33"/><ellipse class="cls-10" cx="374.57" cy="347.38" rx="2.21" ry="1.33"/><ellipse class="cls-4" cx="306.81" cy="339.05" rx="2.21" ry="1.33"/><ellipse class="cls-4" cx="294.6" cy="362.16" rx="2.21" ry="1.33"/><ellipse class="cls-10" cx="379.58" cy="304.83" rx="2.21" ry="1.33"/><ellipse class="cls-10" cx="330.69" cy="321.83" rx="2.21" ry="1.33"/><ellipse class="cls-10" cx="461.22" cy="289.62" rx="2.21" ry="1.33"/><ellipse class="cls-10" cx="346.26" cy="360.93" rx="2.21" ry="1.33"/><ellipse class="cls-10" cx="341.26" cy="340.72" rx="2.21" ry="1.33"/><ellipse class="cls-10" cx="255.31" cy="359.77" rx="2.21" ry="1.33"/></g></g></g></svg>