<svg width="30" height="24" viewBox="0 0 30 24" fill="none" xmlns="http://www.w3.org/2000/svg">
<path d="M0 7H30V17H0V7Z" fill="#F6D44A"/>
<path d="M4 0H26C28.208 0 30 1.792 30 4V8H0V4C0 1.792 1.792 0 4 0Z" fill="#BE2A2C"/>
<path d="M26 24L4 24C1.792 24 0 22.208 0 20V16L30 16V20C30 22.208 28.208 24 26 24Z" fill="#2D6A41"/>
<path opacity="0.15" d="M26 0H4C1.791 0 0 1.791 0 4V20C0 22.209 1.791 24 4 24H26C28.209 24 30 22.209 30 20V4C30 1.791 28.209 0 26 0ZM29 20C29 21.654 27.654 23 26 23H4C2.346 23 1 21.654 1 20V4C1 2.346 2.346 1 4 1H26C27.654 1 29 2.346 29 4V20Z" fill="black"/>
<path d="M16.6059 12.944L19.2059 11.056H15.9929L14.9999 8L14.0069 11.056H10.7939L13.3939 12.944L12.4009 16L14.9999 14.111L17.5989 16L16.6059 12.944Z" fill="black"/>
<path opacity="0.2" d="M26 1H4C2.343 1 1 2.343 1 4V5C1 3.343 2.343 2 4 2H26C27.657 2 29 3.343 29 5V4C29 2.343 27.657 1 26 1Z" fill="white"/>
</svg>
