<svg width="357" height="409" viewBox="0 0 357 409" fill="none" xmlns="http://www.w3.org/2000/svg">
<path d="M73.5266 12.9274L303.238 60.0807C305.887 60.6241 308.312 61.9494 310.202 63.8857C312.092 65.8219 313.359 68.2805 313.84 70.9446C320.237 105.96 323.806 251.843 334.567 312.001C336.334 321.98 353.51 358.5 353.51 358.5C353.868 359.22 354.034 360.02 353.994 360.823C353.954 361.626 353.708 362.405 353.281 363.085C352.853 363.766 352.258 364.325 351.552 364.708C350.847 365.092 350.054 365.288 349.251 365.276L308.469 362.959C305.608 362.897 302.764 363.425 300.116 364.512C297.469 365.599 295.073 367.22 293.078 369.275L261.607 401.637C258.997 403.64 255.955 405.004 252.724 405.618C249.493 406.233 246.163 406.081 243.001 405.175L9.27798 336.383C8.10105 336.046 7.00884 335.463 6.07344 334.672C5.13803 333.882 4.38068 332.901 3.85135 331.796C3.32202 330.691 3.03276 329.486 3.00262 328.261C2.97249 327.035 3.20217 325.817 3.67652 324.687L23.2374 277.888C27.8316 266.847 23.8912 252.958 25.9762 190.96C28.4854 116.399 65.6634 18.3594 65.6634 18.3594C65.7952 17.4722 66.1077 16.6216 66.5815 15.8604C67.0552 15.0992 67.6801 14.4436 68.4174 13.9343C69.1547 13.425 69.9887 13.0728 70.8676 12.8996C71.7465 12.7264 72.6515 12.7359 73.5266 12.9274V12.9274Z" fill="#B5865C" stroke="black" stroke-width="4.54865" stroke-miterlimit="10"/>
<path d="M350.719 363.43C350.28 363.935 349.737 364.339 349.127 364.614C348.517 364.889 347.854 365.028 347.185 365.022L308.488 362.97C305.627 362.909 302.784 363.438 300.136 364.525C297.488 365.612 295.092 367.232 293.097 369.287L261.609 401.648C259.312 403.417 257.668 401.418 254.965 402.108L292.514 337.013V336.376L350.719 363.43Z" fill="#421E0B" stroke="black" stroke-width="4.54865" stroke-miterlimit="10"/>
<path d="M333.964 308.322C334.229 319.151 353.401 358.501 353.401 358.501C354.32 360.27 352.818 362.04 351.634 363.42L292.475 336.402L306.416 74.3075L308.183 62.2759C309.665 63.2847 310.931 64.5786 311.907 66.0823C312.884 67.586 313.553 69.2693 313.873 71.0341C320.217 105.961 332.321 241.246 333.964 308.322Z" fill="#5B2A0E" stroke="black" stroke-width="4.54865" stroke-miterlimit="10"/>
<path d="M56.2988 285.665L218.246 328.501" stroke="#5B2A0E" stroke-width="4.54865" stroke-miterlimit="10" stroke-linecap="round"/>
<path d="M306.4 74.3174L292.546 336.482V337.12L254.132 403.417L252.771 403.7C251.834 385.21 259.733 354.99 263.214 342.056C264.019 338.951 264.353 335.742 264.204 332.537C263.974 326.786 265.352 318.276 267.631 317.055C270.635 315.409 273.092 310.65 273.586 307.253L306.4 74.3174Z" fill="#825C43" stroke="black" stroke-width="4.54865" stroke-miterlimit="10"/>
<g style="mix-blend-mode:multiply">
<path d="M74.5205 18.1626L294.062 60.6151C298.369 61.4479 302.169 63.9598 304.626 67.5981C307.084 71.2365 307.997 75.7034 307.165 80.016L302.77 102.809C301.319 110.328 296.946 116.963 290.61 121.253C284.275 125.543 276.497 127.138 268.987 125.686L73.5961 87.9032C66.0866 86.4511 59.4608 82.0714 55.1762 75.7275C50.8916 69.3837 49.2993 61.5954 50.7495 54.076L55.1419 31.3006C55.5517 29.1633 56.3782 27.1279 57.5741 25.3106C58.7701 23.4934 60.312 21.93 62.1117 20.7098C63.9115 19.4897 65.9338 18.6366 68.0629 18.1996C70.1921 17.7625 72.3864 17.75 74.5205 18.1626Z" fill="#CC966A"/>
</g>
<path d="M73.8347 3.20054L302.849 47.4848C307.244 48.3345 311.121 50.8973 313.628 54.6096C316.135 58.3218 317.067 62.8793 316.219 67.2794L311.994 89.1863C310.515 96.8531 306.055 103.618 299.596 107.992C293.136 112.367 285.206 113.992 277.549 112.512L73.1533 72.988C65.4966 71.5075 58.7408 67.0419 54.3722 60.5737C50.0036 54.1055 48.38 46.1645 49.8587 38.4976L54.0969 16.5213C54.961 12.1398 57.5223 8.27895 61.2209 5.78281C64.9195 3.28668 69.4545 2.35827 73.8347 3.20054V3.20054Z" fill="#CC966A" stroke="black" stroke-width="4.54865" stroke-miterlimit="10"/>
<path d="M167.734 132.261C184.591 132.261 198.256 118.595 198.256 101.739C198.256 84.8819 184.591 71.2168 167.734 71.2168C150.877 71.2168 137.212 84.8819 137.212 101.739C137.212 118.595 150.877 132.261 167.734 132.261Z" fill="#0C513F" stroke="black" stroke-width="4.54865" stroke-miterlimit="10"/>
</svg>
