<svg width="113" height="113" viewBox="0 0 113 113" fill="none" xmlns="http://www.w3.org/2000/svg">
<path d="M55.9996 103.519C82.2447 103.519 103.521 82.2428 103.521 55.9976C103.521 29.7525 82.2447 8.47656 55.9996 8.47656C29.7544 8.47656 8.47852 29.7525 8.47852 55.9976C8.47852 82.2428 29.7544 103.519 55.9996 103.519Z" fill="#0C513F" stroke="white" stroke-width="1.22667" stroke-miterlimit="10"/>
<path d="M30.0586 49.0624C34.1219 48.357 38.4766 47.6885 42.221 49.4058C46.0697 51.1691 48.4862 55.1804 49.4645 59.2989C50.1391 62.1509 50.0257 65.6132 47.7257 67.4225C46.0881 68.7136 43.8126 68.7749 41.7365 68.5633C39.6113 68.3486 37.3021 67.7813 36.057 66.0425C34.7506 64.2025 35.0726 61.6418 36.0754 59.6332C36.7426 58.262 37.7164 57.0626 38.9213 56.128C41.0097 54.5364 43.6623 53.9445 46.2169 53.3342C50.2035 52.3897 54.1626 51.2949 57.8119 49.4549C61.4613 47.6149 64.7978 44.9806 66.9015 41.4816C67.4393 40.647 67.8226 39.7225 68.0331 38.7522C68.2553 37.5376 68.0599 36.2836 67.4786 35.1942C66.8973 34.1048 65.9644 33.2442 64.8318 32.7526C63.6991 32.2609 62.4334 32.1671 61.2406 32.4864C60.0479 32.8057 58.9983 33.5193 58.2627 34.511C56.3614 37.0809 57.0545 40.7547 58.4866 43.6129C59.9187 46.471 62.0041 49.047 62.8229 52.1382C63.0713 53.0766 63.2154 54.0886 63.8195 54.8491C64.7702 56.0451 66.5795 56.2108 68.0239 55.6864C70.0019 54.9626 71.4555 53.1809 72.1915 51.209C72.9275 49.2372 73.0165 47.0843 72.9183 44.9837C72.8639 42.8066 72.4782 40.6506 71.7745 38.5897C70.7441 35.7837 68.8979 33.3089 68.0515 30.4416C67.2051 27.5742 67.7449 23.8973 70.3914 22.5081C71.3758 21.9898 72.5135 21.8641 73.6237 21.8487C76.9755 21.8089 80.493 22.8577 82.7041 25.3693C84.3141 27.2093 85.0961 29.632 85.3475 32.0516C85.7063 35.5108 85.0071 39.1631 82.9371 41.9538C81.735 43.5761 80.0821 44.9223 79.3645 46.8083C78.837 48.1822 78.8585 49.7309 78.2329 51.0618C77.1687 53.325 74.5161 54.38 72.0321 54.6774C69.5481 54.9749 66.9935 54.7296 64.5739 55.3521C62.2157 55.9654 60.1273 57.3607 57.7813 58.017C55.8094 58.5659 53.7271 58.5721 51.6817 58.4801C48.7806 58.3482 45.8182 58.0078 43.2115 56.7229C38.8569 54.5762 35.965 49.504 36.8666 44.7322C37.3113 42.3924 38.5594 40.2917 39.8321 38.2769C43.0858 33.1218 47.0786 27.8288 52.9267 26.1053C57.9254 24.6302 63.2951 26.0808 68.1803 27.9024C70.4926 28.7672 72.8723 29.7822 74.4609 31.6743C75.1222 32.522 75.6927 33.4368 76.1629 34.4037C79.1723 40.1281 81.9885 45.9466 84.6115 51.8591C85.8535 54.659 87.0189 58.0415 85.369 60.6237C84.0841 62.6385 81.4805 63.3837 79.0915 63.4419C75.9329 63.5155 72.3449 62.2552 71.2593 59.2866C70.7165 57.7932 70.9097 56.1096 70.3546 54.6222C69.7995 53.1349 67.843 51.9327 66.6562 52.9877C66.2798 53.3743 66.0195 53.8588 65.9049 54.3861C65.3964 55.998 65.3496 57.7201 65.7699 59.3572C66.4385 61.7277 68.257 63.6167 69.1279 65.9229C69.6123 67.2432 69.7776 68.6594 69.6103 70.0557C69.4429 71.4521 68.9477 72.7891 68.165 73.9576C66.7543 76.0276 64.1937 77.475 61.7465 76.9353C58.7166 76.2637 56.9686 72.7125 57.4961 69.655C58.0235 66.5976 60.2837 64.0952 62.8443 62.3441C63.5742 61.8442 64.3501 61.375 64.8867 60.6758C65.4234 59.9766 65.6626 58.9554 65.1934 58.2041C64.9049 57.8032 64.5227 57.4789 64.0802 57.2595C62.3116 56.2237 60.4268 55.4002 58.4651 54.8062C56.9625 54.3523 53.9295 54.4781 49.8263 49.7248C45.4625 44.6709 42.0585 38.3413 42.3222 31.6682C42.4265 29.0585 43.2023 26.2954 45.2325 24.6486C47.2626 23.0018 50.7525 23.0662 52.1294 25.2865C52.4928 25.9308 52.7418 26.6333 52.8654 27.3626C53.8726 32.0397 53.5539 36.9052 51.9454 41.411C50.1269 46.471 46.7597 50.8318 44.5854 55.7569C42.4111 60.6819 41.6506 66.8306 44.8737 71.1362" stroke="#E2BF88" stroke-width="2.45333" stroke-linecap="round" stroke-linejoin="round"/>
<path d="M86.7312 80.6624C88.6632 75.6238 92.8891 64.2036 82.536 52.5042C79.224 48.7629 74.7498 45.7576 69.7572 45.546C65.0254 45.3528 60.4223 47.573 56.9416 50.7838C53.461 53.9946 50.9678 58.1285 48.8364 62.3574C48.0452 63.9214 47.2786 65.6142 47.4779 67.353C47.619 68.5797 48.22 69.6806 48.8824 70.7264C52.1822 75.8722 57.1103 79.7301 62.0078 83.3886C65.2186 85.7868 68.7023 88.2401 72.7043 88.4732C73.8666 88.5406 75.0871 88.3996 76.0776 87.774C77.0682 87.1484 77.7428 85.9585 77.5067 84.8177C77.313 84.1177 76.9262 83.4864 76.3904 82.9961C73.2931 79.8068 68.506 78.8285 64.0686 79.0892C59.6311 79.3498 55.3286 80.6654 50.9402 81.383C50.0202 81.5302 49.0419 81.6376 48.266 81.153C47.3154 80.5397 47.0393 79.313 46.8247 78.2152C45.7814 73.149 43.7697 68.3321 40.8999 64.0288C39.6303 62.1305 38.1399 60.2322 37.8332 57.966C37.3364 54.3902 43.528 36.6189 55.9266 33.6688C59.1496 32.9021 66.6599 32.6046 71.3059 33.7117C76.5836 34.966 81.9687 38.9802 83.7566 42.2984C89.1815 52.3448 77.841 57.3588 75.3784 57.4324C72.4447 57.5201 69.5236 57.0121 66.7918 55.9389C63.7496 54.7398 61.0264 52.8722 58.1805 51.2622C53.5485 48.6431 48.5704 46.6898 43.3931 45.4601C40.7128 44.8253 29.6636 41.1821 26.1523 53.9394C23.6499 63.0198 30.4702 72.6737 32.1139 74.3297C36.6035 78.85 43.7427 72.1646 44.4726 71.4225C45.9814 69.8892 45.7728 67.2518 44.5676 65.4701C43.3624 63.6884 41.9855 61.0817 40.0964 60.0544C33.267 56.3069 29.9151 62.4617 29.5471 63.3602C28.218 66.5835 27.4804 70.0199 27.3698 73.5048C27.3054 76.5714 28.486 88.8381 44.5431 84.83C46.2858 84.3436 47.9797 83.6968 49.6031 82.898C51.4983 82.0301 53.415 81.1469 55.0342 79.8313C56.221 78.8745 57.2238 77.7061 58.4075 76.7646C59.6205 75.8681 60.9286 75.1081 62.3083 74.4984C68.1687 71.6985 84.3668 63.6792 84.4496 76.323C84.4803 80.9414 81.1806 85.1336 77.4699 87.8844C72.5632 91.5184 65.8626 92.3832 60.0236 90.6014C54.1847 88.8197 49.2535 84.5816 46.1408 79.3253C45.6011 78.4053 45.0982 77.4485 44.3008 76.7432C43.5035 76.0378 42.332 75.6422 41.366 76.0838C41.0376 76.2558 40.7469 76.4917 40.5109 76.7777C40.275 77.0637 40.0986 77.3939 39.9922 77.749C38.9679 80.6992 41.366 83.7137 43.8623 85.5936C46.6499 87.6912 50.1612 89.3533 53.553 88.5284C56.9999 87.6881 59.3612 84.5417 62.477 82.855C64.8168 81.5824 67.5462 81.1438 69.837 79.7884C72.3823 78.301 74.1886 75.8324 75.7894 73.3484C77.2338 71.1128 78.6076 68.733 78.9542 66.0957C79.3467 63.1118 78.6046 60.039 77.3718 57.2944C75.0104 52.0412 70.8888 50.7838 68.1718 50.4128C64.3864 49.8912 60.5539 49.8027 56.7484 50.149C52.7311 50.514 48.3764 51.5996 46.0151 54.8778C42.9208 59.1896 44.8406 65.6112 48.8579 69.0949C51.8495 71.6788 55.735 72.9867 59.6802 72.7381C61.6327 72.5936 63.5332 72.0407 65.2585 71.1152C66.9838 70.1896 68.4956 68.9121 69.6959 67.3653C70.5269 66.3398 71.0897 65.1236 71.3335 63.8264C71.5119 62.6461 71.3107 61.4397 70.7588 60.3813C70.2069 59.3229 69.333 58.4673 68.2631 57.938C67.1932 57.4087 65.9828 57.2331 64.8066 57.4366C63.6305 57.64 62.5494 58.212 61.7195 59.07C60.4928 60.3334 59.9408 62.0753 59.4072 63.7466C58.8736 65.418 58.2817 67.1568 57.0213 68.3773C55.7609 69.5978 53.6143 70.0946 52.2435 68.9906C50.7439 67.7854 50.9831 64.4765 51.0168 62.5506C51.0843 58.0978 45.4171 56.1505 43.7274 60.3672C42.0683 64.5041 39.9339 69.2053 42.0806 73.1122C43.942 76.504 48.1004 77.7644 51.8479 78.7242" stroke="#E2BF88" stroke-width="2.45333" stroke-linecap="round" stroke-linejoin="round"/>
<path d="M97.5434 62.4991C93.615 63.7503 89.3952 65.0107 85.4484 63.8239C81.3943 62.5972 78.4503 58.9571 76.92 55.0134C75.862 52.284 75.4971 48.8371 77.5334 46.7334C78.9808 45.2307 81.2134 44.8596 83.311 44.786C85.4576 44.7063 87.8128 44.9516 89.2818 46.5034C90.8151 48.1348 90.8611 50.7262 90.1435 52.8575C89.6682 54.3068 88.8667 55.6277 87.8006 56.7184C85.9606 58.5799 83.403 59.5306 80.9588 60.4843C77.1531 61.9655 73.3658 63.5939 70.0047 65.9123C66.6436 68.2307 63.6966 71.3035 62.0896 75.0602C61.6727 75.9608 61.4203 76.9288 61.3444 77.9183C61.2909 79.1516 61.6564 80.3667 62.3812 81.3659C63.1061 82.3651 64.1477 83.0896 65.3367 83.4216C66.5256 83.7536 67.7919 83.6735 68.9296 83.1943C70.0672 82.7152 71.0093 81.8652 71.6024 80.7826C73.1358 77.9766 71.9459 74.4346 70.1366 71.7972C68.3272 69.1599 65.9076 66.8906 64.6718 63.9435C64.2976 63.048 64.0155 62.0667 63.3132 61.3951C62.2092 60.3402 60.3815 60.4291 59.0352 61.1436C57.1768 62.1311 55.9686 64.0968 55.5208 66.1484C55.0731 68.2 55.2663 70.3467 55.6496 72.4136C56.0043 74.5622 56.6826 76.6446 57.6614 78.5899C59.0659 81.2334 61.231 83.4291 62.4638 86.1554C63.6966 88.8816 63.6659 92.5954 61.2371 94.3342C60.3324 94.9812 59.2223 95.2542 58.1244 95.429C54.8124 95.9258 51.1846 95.3707 48.6454 93.1842C46.8054 91.5956 45.6952 89.2895 45.1156 86.9251C44.2846 83.5518 44.4778 79.838 46.146 76.7867C47.112 75.0172 48.5656 73.4563 49.0226 71.4906C49.3538 70.0584 49.1207 68.5251 49.5562 67.1206C50.3014 64.7347 52.7884 63.324 55.205 62.6892C57.6215 62.0544 60.1883 61.9502 62.5006 60.9995C64.7546 60.0795 66.6314 58.402 68.8639 57.433C70.7438 56.6172 72.8046 56.3259 74.8439 56.1388C77.7358 55.872 80.7166 55.8046 83.4735 56.7184C88.0735 58.2518 91.6431 62.8763 91.4008 67.7278C91.2812 70.1075 90.3336 72.3584 89.3492 74.5266C86.8315 80.0803 83.5992 85.8732 78.0424 88.3787C73.2922 90.5254 67.7752 89.8231 62.6876 88.6854C60.2772 88.1487 57.781 87.4587 55.941 85.8088C55.1686 85.0609 54.4787 84.2322 53.8832 83.3371C50.1174 78.0849 46.5304 72.708 43.1223 67.2064C41.5092 64.6028 39.8931 61.4104 41.1688 58.6198C42.1686 56.4455 44.6434 55.3476 46.9955 54.9643C50.1143 54.4614 53.8495 55.2158 55.3215 58.0095C56.0636 59.414 56.1035 61.1099 56.8548 62.5083C57.6062 63.9067 59.7099 64.8267 60.7403 63.6184C61.0603 63.1841 61.2525 62.6689 61.2954 62.1311C61.5781 60.4656 61.389 58.7543 60.7495 57.1907C59.759 54.9306 57.7012 53.3114 56.5236 51.1463C55.8623 49.9047 55.5039 48.5243 55.4778 47.1178C55.4517 45.7114 55.7586 44.3186 56.3734 43.0534C57.4896 40.8116 59.8295 39.0268 62.3258 39.2262C65.417 39.4746 67.6372 42.7559 67.5391 45.8563C67.441 48.9567 65.5396 51.7443 63.2458 53.8296C62.5926 54.4246 61.8842 54.995 61.4518 55.7647C61.0194 56.5344 60.9182 57.574 61.4824 58.2548C61.8222 58.6099 62.2432 58.8772 62.7091 59.0338C64.6033 59.819 66.5838 60.3769 68.6094 60.6959C70.158 60.9382 73.145 60.3892 77.8615 64.5446C82.8755 68.9544 87.1167 74.7566 87.7668 81.4112C88.0214 84.0118 87.6288 86.8576 85.8471 88.7712C84.0654 90.6848 80.597 91.0927 78.9287 89.0779C78.4804 88.4885 78.136 87.8268 77.9106 87.1214C76.2799 82.6242 75.9347 77.7615 76.9139 73.0791C78.024 67.8167 80.7595 63.0358 82.2284 57.8623C83.6974 52.6888 83.6176 46.488 79.8364 42.6639" stroke="#FFEDB3" stroke-width="2.45333" stroke-linecap="round" stroke-linejoin="round"/>
<path d="M78.0059 18.7497C72.9398 16.8913 61.4459 12.8372 49.9153 23.3651C46.2353 26.7384 43.279 31.2495 43.1471 36.2451C43.0244 40.9769 45.3122 45.5463 48.5751 48.9809C51.8381 52.4156 55.9995 54.8413 60.2683 56.9205C61.8446 57.6841 63.5496 58.4263 65.2854 58.1993C66.512 58.0429 67.6007 57.4235 68.6219 56.7488C73.7157 53.3755 77.4999 48.386 81.0848 43.4333C83.437 40.1888 85.8351 36.6683 86.0099 32.6632C86.062 31.5009 85.8995 30.2835 85.2617 29.3083C84.6238 28.3331 83.4216 27.6737 82.2839 27.9252C81.5873 28.1295 80.9624 28.526 80.4807 29.0691C77.3374 32.2124 76.4296 37.0148 76.7547 41.4492C77.0798 45.8836 78.4628 50.1647 79.2479 54.5408C79.4074 55.4424 79.53 56.4329 79.0547 57.218C78.472 58.1779 77.2362 58.46 76.1414 58.7023C71.0875 59.8174 66.2972 61.9001 62.0347 64.8356C60.1548 66.1328 58.278 67.6385 56.0179 67.9851C52.4483 68.5371 34.5881 62.6092 31.4539 50.2536C30.6382 47.0428 30.2272 39.5356 31.2638 34.8773C32.4414 29.5812 36.3759 24.144 39.6603 22.304C49.6239 16.7319 54.8066 27.9927 54.917 30.4552C55.0494 33.3854 54.5851 36.3119 53.5523 39.0572C52.3992 42.1239 50.5746 44.8839 49.0044 47.7389C46.4546 52.4053 44.5766 57.4084 43.4262 62.6C42.8312 65.2895 39.3506 76.4 52.157 79.7151C61.2772 82.0795 70.8268 75.1151 72.4614 73.4468C76.9142 68.8897 70.1215 61.8517 69.3671 61.1341C67.8123 59.6468 65.178 59.9075 63.4147 61.1341C61.6514 62.3608 59.0631 63.7807 58.0664 65.6851C54.457 72.5759 60.6455 75.8357 61.5594 76.1915C64.8027 77.4695 68.2491 78.155 71.7346 78.2155C74.8012 78.2369 87.0679 76.8692 82.8022 60.8796C82.2901 59.1449 81.6187 57.4613 80.7966 55.8503C79.898 53.9704 78.9872 52.066 77.6532 50.4652C76.678 49.2937 75.5066 48.3185 74.5406 47.1256C73.6263 45.9268 72.8468 44.631 72.2161 43.2616C69.3303 37.4349 61.0687 21.3656 73.7126 21.0927C78.3126 20.9945 82.5691 24.2299 85.3659 27.8976C89.0766 32.7491 90.0395 39.4375 88.3437 45.304C86.6478 51.1705 82.4679 56.1723 77.2607 59.3585C76.356 59.9136 75.3992 60.4319 74.7062 61.2353C74.0131 62.0388 73.6359 63.2195 74.0928 64.1793C74.2693 64.5052 74.5092 64.7924 74.7983 65.0241C75.0875 65.2558 75.42 65.4274 75.7764 65.5287C78.745 66.5069 81.7227 64.0659 83.5627 61.542C85.6205 58.7237 87.2274 55.1879 86.3534 51.8084C85.4641 48.3737 82.2931 46.0584 80.5482 42.9703C79.2418 40.6488 78.7603 37.9287 77.3834 35.6501C75.8501 33.1263 73.363 31.3568 70.8637 29.7959C68.6097 28.3821 66.2085 27.0359 63.565 26.7292C60.5995 26.3827 57.5329 27.1739 54.8035 28.4465C49.5902 30.8999 48.3881 35.0245 48.0569 37.7324C47.5939 41.5255 47.563 45.3588 47.9648 49.1588C48.388 53.17 49.5411 57.5093 52.8531 59.8124C57.2108 62.8453 63.6171 60.8275 67.0272 56.7457C69.5631 53.7182 70.8125 49.818 70.5079 45.8805C70.3345 43.9303 69.7536 42.0381 68.8027 40.3266C67.8518 38.615 66.5522 37.1221 64.9879 35.9445C63.9503 35.1288 62.7254 34.5848 61.4245 34.3621C60.2419 34.2023 59.0392 34.4224 57.9899 34.9908C56.9407 35.5592 56.0993 36.4465 55.5874 37.5244C55.0754 38.6022 54.9193 39.815 55.1417 40.9874C55.364 42.1598 55.9533 43.2311 56.8245 44.0467C58.1033 45.2457 59.8543 45.7793 61.5348 46.2853C63.2154 46.7913 64.9603 47.3617 66.1993 48.6037C67.4382 49.8457 67.9657 51.9771 66.8893 53.3693C65.7055 54.9027 62.3935 54.7003 60.4707 54.7003C56.0179 54.7003 54.1534 60.3951 58.3946 62.0235C62.556 63.6181 67.2879 65.682 71.1642 63.4771C74.5375 61.5665 75.7274 57.3897 76.629 53.63" stroke="#FFEDB3" stroke-width="2.45333" stroke-linecap="round" stroke-linejoin="round"/>
<path d="M39.7465 88.4781C45.1407 88.6099 57.3185 88.7633 64.8717 75.089C67.2882 70.7159 68.6253 65.4934 67.1441 60.7186C65.7426 56.1953 62.1086 52.6042 57.9196 50.3993C53.7305 48.1943 48.9955 47.2345 44.2974 46.6395C42.5586 46.4187 40.7063 46.2654 39.1331 47.0351C38.0353 47.5749 37.1919 48.5133 36.4406 49.4885C32.6993 54.3215 30.7151 60.2555 28.9089 66.0975C27.7251 69.9278 26.5813 74.031 27.7037 77.8797C28.0287 78.999 28.5685 80.0999 29.4885 80.8145C30.4085 81.529 31.7547 81.7743 32.7514 81.1702C33.3475 80.7546 33.8133 80.1782 34.0946 79.5081C36.0603 75.5214 35.3795 70.6853 33.6469 66.5882C31.9142 62.4911 29.2339 58.8817 27.0873 54.9901C26.6457 54.1866 26.2102 53.2881 26.4095 52.3926C26.6518 51.2978 27.7313 50.6323 28.6911 50.0497C33.1154 47.3706 36.9798 43.8613 40.0715 39.715C41.4393 37.875 42.7334 35.8541 44.7605 34.8083C47.9651 33.1431 66.7822 33.0235 73.719 43.7017C75.5222 46.4831 78.319 53.4629 78.8312 58.207C79.4169 63.6013 77.4389 70.0198 74.915 72.8135C67.2667 81.2898 58.7475 72.2861 57.849 69.9922C56.7857 67.2583 56.287 64.3374 56.3831 61.4055C56.4905 58.1365 57.3399 54.9441 57.9165 51.7241C58.8331 46.4825 59.0055 41.1377 58.4286 35.8479C58.122 33.1125 57.8582 21.4775 44.6623 22.4435C35.2661 23.1305 28.4581 32.7905 27.4461 34.8942C24.6861 40.6411 33.3831 45.1246 34.3277 45.5662C36.2781 46.4862 38.6946 45.3914 39.9673 43.6587C41.2399 41.9261 43.2394 39.7549 43.5737 37.6327C44.782 29.9477 37.8727 28.8467 36.8914 28.8038C33.4096 28.6313 29.9253 29.0884 26.6058 30.1531C23.6863 31.1222 12.5206 36.3447 21.6991 50.1233C22.7413 51.6014 23.9178 52.9801 25.2135 54.2418C26.6671 55.7353 28.1422 57.2471 29.9178 58.3358C31.2181 59.1301 32.6533 59.6851 33.9382 60.4978C35.1891 61.3403 36.3439 62.3172 37.3821 63.4111C41.9821 67.9958 54.9663 80.5845 43.0799 84.8778C38.7406 86.4541 33.6837 84.749 29.8503 82.1761C24.7811 78.7721 21.7206 72.7461 21.4446 66.6465C21.1686 60.5469 23.5207 54.4657 27.4307 49.7798C28.1115 48.9671 28.8475 48.1667 29.2462 47.1854C29.6449 46.2041 29.6265 44.9621 28.8874 44.1985C28.6159 43.9456 28.2961 43.7501 27.9473 43.6237C27.5985 43.4972 27.2278 43.4424 26.8573 43.4625C23.7323 43.487 21.6991 46.753 20.7638 49.7369C19.7181 53.0673 19.3317 56.9313 21.2453 59.8569C23.1895 62.8223 26.937 63.9969 29.5805 66.3643C31.5615 68.1399 32.8894 70.5657 34.9257 72.2799C37.1827 74.1813 40.1114 75.0553 42.9818 75.733C45.5701 76.3463 48.2718 76.8431 50.8754 76.285C53.8194 75.6717 56.4629 73.9267 58.6341 71.8445C62.7955 67.8578 62.5962 63.5645 62.0412 60.8842C61.2613 57.143 60.0575 53.5029 58.4531 50.0343C56.7634 46.3727 54.2794 42.6314 50.4062 41.5121C45.3064 40.0401 39.8814 44.0053 37.9617 48.9549C36.5284 52.638 36.5977 56.7365 38.1549 60.369C38.9446 62.1609 40.1021 63.7669 41.5523 65.0829C43.0024 66.3989 44.7129 67.3955 46.5729 68.0081C47.8171 68.4488 49.1517 68.571 50.4553 68.3638C51.6274 68.1366 52.6969 67.5426 53.5091 66.6675C54.3214 65.7924 54.8342 64.6816 54.9735 63.4958C55.1128 62.31 54.8714 61.1107 54.2841 60.0712C53.6968 59.0317 52.7941 58.2059 51.7065 57.7133C50.1087 56.9865 48.281 57.0447 46.5269 57.0999C44.7727 57.1551 42.9358 57.1827 41.3626 56.4038C39.7894 55.6249 38.6026 53.7665 39.1791 52.1105C39.8109 50.2919 43.0094 49.4057 44.8341 48.7893C49.0507 47.3602 48.9894 41.3679 44.4477 41.187C39.9949 41.0122 34.849 40.5737 31.8743 43.9071C29.3045 46.799 29.5069 51.1383 29.8595 54.9901" stroke="#FFEDB3" stroke-width="2.45333" stroke-linecap="round" stroke-linejoin="round"/>
<path d="M81.2933 51.3185C82.5771 51.3185 83.6178 50.3587 83.6178 49.1748C83.6178 47.991 82.5771 47.0312 81.2933 47.0312C80.0095 47.0312 78.9688 47.991 78.9688 49.1748C78.9688 50.3587 80.0095 51.3185 81.2933 51.3185Z" fill="#ED5E3B"/>
<path d="M44.9534 89.8106C46.2372 89.8106 47.278 88.8509 47.278 87.667C47.278 86.4832 46.2372 85.5234 44.9534 85.5234C43.6696 85.5234 42.6289 86.4832 42.6289 87.667C42.6289 88.8509 43.6696 89.8106 44.9534 89.8106Z" fill="#ED5E3B"/>
<path d="M83.9925 81.2325C85.2763 81.2325 86.317 80.2728 86.317 79.0889C86.317 77.905 85.2763 76.9453 83.9925 76.9453C82.7087 76.9453 81.668 77.905 81.668 79.0889C81.668 80.2728 82.7087 81.2325 83.9925 81.2325Z" fill="#ED5E3B"/>
<path d="M19.6995 58.7091C20.9833 58.7091 22.0241 57.7493 22.0241 56.5655C22.0241 55.3816 20.9833 54.4219 19.6995 54.4219C18.4157 54.4219 17.375 55.3816 17.375 56.5655C17.375 57.7493 18.4157 58.7091 19.6995 58.7091Z" fill="#ED5E3B"/>
<path d="M44.3372 47.9278C45.621 47.9278 46.6618 46.9681 46.6618 45.7842C46.6618 44.6003 45.621 43.6406 44.3372 43.6406C43.0534 43.6406 42.0127 44.6003 42.0127 45.7842C42.0127 46.9681 43.0534 47.9278 44.3372 47.9278Z" fill="#ED5E3B"/>
<path d="M85.6859 36.0567C86.9697 36.0567 88.0104 35.097 88.0104 33.9131C88.0104 32.7293 86.9697 31.7695 85.6859 31.7695C84.4021 31.7695 83.3613 32.7293 83.3613 33.9131C83.3613 35.097 84.4021 36.0567 85.6859 36.0567Z" fill="#ED5E3B"/>
<path d="M39.8792 25.3184C41.163 25.3184 42.2038 24.3587 42.2038 23.1749C42.2038 21.991 41.163 21.0312 39.8792 21.0312C38.5954 21.0312 37.5547 21.991 37.5547 23.1749C37.5547 24.3587 38.5954 25.3184 39.8792 25.3184Z" fill="#ED5E3B"/>
<path d="M62.3089 64.4903C63.5927 64.4903 64.6334 63.5306 64.6334 62.3467C64.6334 61.1628 63.5927 60.2031 62.3089 60.2031C61.0251 60.2031 59.9844 61.1628 59.9844 62.3467C59.9844 63.5306 61.0251 64.4903 62.3089 64.4903Z" fill="#ED5E3B"/>
<path d="M66.011 94.7611C66.5963 94.5189 66.613 93.2163 66.0483 91.8517C65.4836 90.487 64.5513 89.5771 63.966 89.8193C63.3807 90.0615 63.364 91.3641 63.9287 92.7287C64.4934 94.0934 65.4257 95.0033 66.011 94.7611Z" fill="#FFC501"/>
<path d="M25.427 40.8549C26.0123 40.6127 26.029 39.3101 25.4643 37.9454C24.8996 36.5808 23.9673 35.6708 23.382 35.913C22.7967 36.1552 22.78 37.4578 23.3447 38.8225C23.9095 40.1872 24.8417 41.0971 25.427 40.8549Z" fill="#FFC501"/>
<path d="M91.3215 44.9174C91.9068 44.6752 91.9235 43.3726 91.3588 42.0079C90.7941 40.6433 89.8619 39.7333 89.2766 39.9755C88.6913 40.2177 88.6746 41.5203 89.2393 42.885C89.804 44.2497 90.7362 45.1596 91.3215 44.9174Z" fill="#FFC501"/>
<path d="M24.6483 70.1925C25.9274 69.454 26.7075 68.4107 26.3908 67.8621C26.074 67.3135 24.7804 67.4675 23.5014 68.2059C22.2224 68.9443 21.4423 69.9877 21.759 70.5362C22.0757 71.0848 23.3693 70.9309 24.6483 70.1925Z" fill="#FFC501"/>
<path d="M58.5136 50.6339C59.7926 49.8954 60.5727 48.8521 60.256 48.3035C59.9393 47.7549 58.6457 47.9089 57.3666 48.6473C56.0876 49.3857 55.3075 50.4291 55.6242 50.9776C55.941 51.5262 57.2346 51.3723 58.5136 50.6339Z" fill="#FFC501"/>
<path d="M82.5702 70.169C83.8492 69.4306 84.6293 68.3872 84.3126 67.8387C83.9959 67.2901 82.7023 67.444 81.4233 68.1825C80.1443 68.9209 79.3642 69.9642 79.6809 70.5128C79.9976 71.0614 81.2912 70.9075 82.5702 70.169Z" fill="#FFC501"/>
<path d="M58.1848 18.1899C58.2943 17.566 57.204 16.8532 55.7493 16.5978C54.2947 16.3423 53.0267 16.641 52.9171 17.2649C52.8076 17.8888 53.898 18.6016 55.3526 18.8571C56.8072 19.1125 58.0752 18.8138 58.1848 18.1899Z" fill="#FFC501"/>
</svg>
