<?xml version="1.0" encoding="UTF-8"?><svg xmlns="http://www.w3.org/2000/svg" viewBox="0 0 300.12 296.22"><defs><style>.cls-1{fill:#08664b;stroke:#ffedb3;stroke-miterlimit:10;stroke-width:2.91px;}.cls-2{fill:#fff;}.cls-3,.cls-4{fill:#ffedb3;}.cls-5{fill:#ffc501;}.cls-6,.cls-7{fill:#ff884d;}.cls-8{fill:#0c513f;}.cls-7,.cls-4{mix-blend-mode:multiply;}.cls-9{stroke:#ffc501;}.cls-9,.cls-10{fill:none;stroke-width:2.18px;}.cls-9,.cls-10,.cls-11{stroke-linecap:round;stroke-linejoin:round;}.cls-10{stroke:#fffcf5;}.cls-11{fill:#3cff31;stroke:#ffc60c;stroke-width:2.97px;}.cls-12{isolation:isolate;}</style></defs><g class="cls-12"><g id="Layer_2"><g id="Layer_1-2"><g><ellipse class="cls-1" cx="150.06" cy="148.11" rx="148.6" ry="146.65"/><ellipse class="cls-8" cx="150.06" cy="148.11" rx="103.79" ry="102.43"/><g><path class="cls-6" d="M185.1,152.05c-32.53,0-58.91,26.03-58.91,58.14s26.38,58.14,58.91,58.14,58.92-26.03,58.92-58.14-26.38-58.14-58.92-58.14Zm3.39,71.88c-8.64,0-15.64-6.91-15.64-15.44s7-15.44,15.64-15.44,15.65,6.92,15.65,15.44-7.01,15.44-15.65,15.44Z"/><g><ellipse class="cls-2" cx="194.2" cy="180.29" rx=".58" ry=".29"/><ellipse class="cls-2" cx="189.38" cy="188.42" rx=".58" ry=".29"/><ellipse class="cls-2" cx="165.95" cy="189.35" rx=".58" ry=".29"/><ellipse class="cls-2" cx="139.41" cy="197.75" rx=".58" ry=".29"/><ellipse class="cls-2" cx="174.62" cy="180.9" rx=".58" ry=".29"/><ellipse class="cls-2" cx="180.06" cy="169.14" rx=".58" ry=".29"/><ellipse class="cls-2" cx="192.41" cy="159.2" rx=".58" ry=".29"/><ellipse class="cls-2" cx="198.48" cy="172.43" rx=".58" ry=".44"/><ellipse class="cls-2" cx="211.7" cy="165.84" rx=".58" ry=".44"/><ellipse class="cls-2" cx="205.56" cy="180.46" rx=".58" ry=".44"/><ellipse class="cls-2" cx="225.85" cy="181.8" rx=".58" ry=".44"/><ellipse class="cls-2" cx="164" cy="174.72" rx=".58" ry=".44"/><ellipse class="cls-2" cx="170.43" cy="159.68" rx=".58" ry=".44"/><ellipse class="cls-2" cx="153.5" cy="185.7" rx=".58" ry=".44"/><ellipse class="cls-2" cx="146.03" cy="178.32" rx=".58" ry=".44"/><ellipse class="cls-2" cx="188.77" cy="171.54" rx=".58" ry=".44"/><ellipse class="cls-2" cx="168.02" cy="210.54" rx=".58" ry=".44"/><ellipse class="cls-2" cx="175.22" cy="226.37" rx=".58" ry=".44"/><ellipse class="cls-2" cx="160.77" cy="230.58" rx=".58" ry=".44"/><ellipse class="cls-2" cx="180.44" cy="243.91" rx=".58" ry=".44"/><ellipse class="cls-2" cx="179.46" cy="257.08" rx=".58" ry=".44"/><ellipse class="cls-2" cx="166.41" cy="244.38" rx=".58" ry=".44"/><ellipse class="cls-2" cx="167.11" cy="198.36" rx=".58" ry=".44"/><ellipse class="cls-2" cx="156.57" cy="213.58" rx=".58" ry=".44"/><ellipse class="cls-2" cx="149.16" cy="221.34" rx=".58" ry=".44"/><ellipse class="cls-2" cx="152.81" cy="204.19" rx=".58" ry=".44"/><ellipse class="cls-2" cx="165.89" cy="218.84" rx=".58" ry=".44"/><ellipse class="cls-2" cx="142.42" cy="234.36" rx=".58" ry=".44"/><ellipse class="cls-2" cx="134.29" cy="214.92" rx=".58" ry=".44"/><ellipse class="cls-2" cx="152.36" cy="193.68" rx=".58" ry=".44"/><ellipse class="cls-2" cx="153.84" cy="166.74" rx=".58" ry=".44"/><ellipse class="cls-2" cx="200.84" cy="187.5" rx=".87" ry=".58"/><ellipse class="cls-2" cx="174.61" cy="192.64" rx=".87" ry=".58"/><ellipse class="cls-2" cx="185.73" cy="230.91" rx=".87" ry=".58"/><ellipse class="cls-2" cx="191.86" cy="240.15" rx=".87" ry=".58"/><ellipse class="cls-2" cx="201.74" cy="254.66" rx=".87" ry=".58"/><ellipse class="cls-2" cx="219.81" cy="251.68" rx=".87" ry=".58"/><ellipse class="cls-2" cx="213.55" cy="191.18" rx=".87" ry=".58"/><ellipse class="cls-2" cx="216.98" cy="182.63" rx=".87" ry=".58"/><ellipse class="cls-2" cx="228.55" cy="211.31" rx=".87" ry=".58"/><ellipse class="cls-2" cx="219.51" cy="214.64" rx=".87" ry=".58"/><ellipse class="cls-2" cx="207.39" cy="199.85" rx=".87" ry=".58"/><ellipse class="cls-2" cx="202.05" cy="229.68" rx=".87" ry=".58"/><ellipse class="cls-2" cx="210.48" cy="238.73" rx=".87" ry=".58"/><ellipse class="cls-2" cx="207.62" cy="221.67" rx=".87" ry=".58"/><ellipse class="cls-2" cx="212.58" cy="211.89" rx=".87" ry=".58"/><ellipse class="cls-2" cx="225.83" cy="223.04" rx=".87" ry=".58"/><ellipse class="cls-2" cx="227.64" cy="236.63" rx=".87" ry=".58"/><ellipse class="cls-2" cx="240.59" cy="216.15" rx=".87" ry=".58"/><ellipse class="cls-2" cx="231.86" cy="189.05" rx=".87" ry=".58"/><ellipse class="cls-2" cx="223.1" cy="200.17" rx=".87" ry=".58"/></g></g><g><path class="cls-3" d="M117.57,136.98c-3.18,.75-6.46-.75-7.99-3.63,0,0-11.32-8.18-18.56-23.35-5.72-11.98-8.27-27.1-8.27-27.1-1.19-2.25-.48-5.03,1.65-6.42,0,0,22.89-19.3,31.37-24.62,15.27-9.58,29.76-18.05,36.38-21.88,2.74-1.58,6.01-1.91,9-.91,5.99,2,15.94,7.07,23.36,19.69,10.06,17.1,17.81,35.79,20.2,41.79,.51,1.27,.27,2.7-.62,3.74-3.53,4.1-14.42,14.78-39.77,26.24-21.89,9.9-38.63,14.55-46.77,16.45Z"/><g><circle class="cls-5" cx="116.57" cy="92.49" r="1.48"/><ellipse class="cls-5" cx="112.31" cy="85.39" rx="1.48" ry="1.51" transform="translate(-13.12 20.8) rotate(-10)"/><ellipse class="cls-5" cx="107.9" cy="79.41" rx="1.48" ry="1.51" transform="translate(-12.15 19.95) rotate(-10)"/><circle class="cls-5" cx="150.09" cy="71.76" r="1.48"/><ellipse class="cls-5" cx="145.82" cy="64.66" rx="1.48" ry="1.51" transform="translate(-9.01 26.31) rotate(-10)"/><ellipse class="cls-5" cx="141.41" cy="58.68" rx="1.48" ry="1.51" transform="translate(-8.04 25.45) rotate(-10)"/><ellipse class="cls-5" cx="135.73" cy="54.03" rx="1.48" ry="1.51" transform="translate(-7.32 24.4) rotate(-10)"/><ellipse class="cls-5" cx="104.03" cy="74.53" rx="1.48" ry="1.51" transform="translate(-11.36 19.2) rotate(-10)"/></g><path class="cls-4" d="M86.21,83.6s17.76,18.01,24.41,47.46c0,0-23.08-19.26-24.7-47.05"/></g><path class="cls-7" d="M182.76,149.92s-3.75,2.14-3.68,5.87c.55,29.69,23.59,52.69,52.69,52.69,7.06,0,12.82-3.19,18.97-5.71l-67.98-52.84Z"/><g><path class="cls-6" d="M239.01,89.55c-32.53,0-58.91,26.03-58.91,58.14s26.38,58.13,58.91,58.13,58.92-26.02,58.92-58.13-26.38-58.14-58.92-58.14Zm3.4,71.88c-8.64,0-15.65-6.91-15.65-15.44s7.01-15.44,15.65-15.44,15.64,6.91,15.64,15.44-7,15.44-15.64,15.44Z"/><g><line class="cls-9" x1="211" y1="111.52" x2="215.86" y2="115.01"/><line class="cls-9" x1="126.76" y1="142.48" x2="131.62" y2="145.98"/><line class="cls-9" x1="128.43" y1="152.8" x2="133.29" y2="156.29"/><line class="cls-9" x1="227.77" y1="117.07" x2="229.32" y2="122.85"/><line class="cls-9" x1="228.35" y1="99.99" x2="233.16" y2="103.56"/><line class="cls-10" x1="222.03" y1="133.36" x2="224.08" y2="138.99"/><line class="cls-10" x1="205.34" y1="71.85" x2="207.39" y2="77.47"/><line class="cls-9" x1="187.47" y1="158.57" x2="192.43" y2="161.93"/><line class="cls-10" x1="238.13" y1="171.14" x2="238.13" y2="177.13"/><line class="cls-9" x1="220.28" y1="188.42" x2="220.28" y2="194.4"/><line class="cls-9" x1="246.34" y1="191.06" x2="251.38" y2="194.29"/><line class="cls-10" x1="217.28" y1="160.51" x2="222.34" y2="163.72"/><line class="cls-10" x1="208.66" y1="69.78" x2="213.72" y2="72.99"/><line class="cls-10" x1="209.69" y1="175.18" x2="203.99" y2="176.99"/><line class="cls-10" x1="207.92" y1="136.55" x2="204.27" y2="141.29"/><line class="cls-10" x1="126.26" y1="147.89" x2="122.61" y2="152.63"/><line class="cls-9" x1="196.21" y1="122.79" x2="193.5" y2="128.12"/><line class="cls-9" x1="246.83" y1="108.01" x2="243.68" y2="113.1"/><line class="cls-10" x1="267.96" y1="140.21" x2="263.48" y2="144.18"/><line class="cls-9" x1="285.96" y1="157.73" x2="285.96" y2="163.72"/><line class="cls-9" x1="282.42" y1="139.18" x2="286.9" y2="143.15"/><line class="cls-9" x1="211.85" y1="84.11" x2="213.75" y2="78.43"/><line class="cls-10" x1="262.57" y1="156.2" x2="263.85" y2="162.05"/><line class="cls-9" x1="256.92" y1="175.98" x2="262.85" y2="176.85"/><line class="cls-9" x1="278.95" y1="177.7" x2="278.95" y2="183.69"/><line class="cls-9" x1="258.41" y1="106.38" x2="264.39" y2="106.23"/><line class="cls-9" x1="254.37" y1="128.25" x2="248.61" y2="126.64"/><line class="cls-9" x1="270.7" y1="120.21" x2="270.7" y2="126.2"/></g></g><path class="cls-7" d="M132.08,235.87l11.8-5.45c3.43-1.59,4.13-6.16,1.34-8.7l-3.29-2.99-13.87,8.15,4.02,9Z"/><g><path class="cls-3" d="M79.82,102.09l-.37-7.91c-.2-4.31-6.46-8.05-10.33-6.14-19.57,9.66-62.05,42.65-38.23,97.52,30.72,70.75,88.18,53.16,109.53,43.49,4.12-1.87,4.93-7.37,1.5-10.32l-3.43-2.96s-23.77-49.23-31.52-64.23c-6.92-13.42-27.16-49.45-27.16-49.45Z"/><g><circle class="cls-5" cx="65.51" cy="141.05" r=".83"/><circle class="cls-5" cx="63.27" cy="148.06" r=".83"/><circle class="cls-5" cx="61.3" cy="154.49" r=".83"/><circle class="cls-5" cx="58.49" cy="162.24" r=".83"/><circle class="cls-5" cx="83.15" cy="156.46" r=".83"/><circle class="cls-5" cx="80.9" cy="163.47" r=".83"/><circle class="cls-5" cx="78.94" cy="169.9" r=".83"/><circle class="cls-5" cx="76.12" cy="177.65" r=".83"/><circle class="cls-5" cx="97.57" cy="172.81" r=".83"/><circle class="cls-5" cx="95.32" cy="179.82" r=".83"/><circle class="cls-5" cx="93.36" cy="186.25" r=".83"/><circle class="cls-5" cx="90.54" cy="194" r=".83"/></g><g><line class="cls-11" x1="33.3" y1="140.89" x2="26.88" y2="139.1"/><line class="cls-11" x1="31.83" y1="149.92" x2="25.31" y2="149.74"/><path class="cls-11" d="M36.27,133.5s-5.81-2.08-6.73-2.79"/><path class="cls-11" d="M40.38,124.86s-5.82-2.8-6.38-3.7"/><path class="cls-11" d="M44.42,117.03s-4.07-2.46-4.83-3.49"/><path class="cls-11" d="M52.04,100.93s2.29,2.22,3.84,2.83"/><path class="cls-11" d="M57.58,96.52s1.73,1.94,3.12,3.02"/><path class="cls-11" d="M64.02,92.09s.47,1.35,2.32,3.85"/><path class="cls-11" d="M45.7,106.78s1.95,2.35,4.05,3.49"/><path class="cls-11" d="M24.92,160.23s5.53-.58,7.42-1.06"/><line class="cls-11" x1="50.39" y1="202.39" x2="43.86" y2="207.28"/><path class="cls-11" d="M26.23,169.51s4.92-1.19,7.7-2.23"/><path class="cls-11" d="M29.17,178.41s5.04-2.05,6.75-2.89"/><path class="cls-11" d="M31.99,185.94s4.55-2.15,6.17-2.71"/><line class="cls-11" x1="35.9" y1="193.85" x2="42.44" y2="190.41"/><line class="cls-11" x1="39.89" y1="201.1" x2="46.96" y2="196.75"/><path class="cls-11" d="M48.88,213.21c2.33-.94,6.42-5.33,6.42-5.33"/><line class="cls-11" x1="55.31" y1="220.08" x2="60.41" y2="213.91"/><line class="cls-11" x1="126.77" y1="232.98" x2="126" y2="226.58"/><line class="cls-11" x1="136.55" y1="229.48" x2="132.44" y2="224.51"/><line class="cls-11" x1="142.61" y1="224.24" x2="136.87" y2="221.3"/><line class="cls-11" x1="117.94" y1="235.43" x2="117.99" y2="229.57"/><line class="cls-11" x1="109.78" y1="236.92" x2="113.37" y2="230.45"/><line class="cls-11" x1="102" y1="237.17" x2="106.13" y2="230.15"/><line class="cls-11" x1="93.81" y1="236.75" x2="98.35" y2="229.86"/><line class="cls-11" x1="86.02" y1="235.63" x2="90.3" y2="229.57"/><line class="cls-11" x1="80.4" y1="233.94" x2="84.66" y2="227.06"/><line class="cls-11" x1="74.65" y1="232.66" x2="78.76" y2="224.55"/><line class="cls-11" x1="68.46" y1="229.35" x2="72.73" y2="223.01"/><line class="cls-11" x1="61.72" y1="225.22" x2="65.71" y2="218.61"/></g></g></g></g></g></g></svg>