<svg width="128" height="145" viewBox="0 0 128 145" fill="none" xmlns="http://www.w3.org/2000/svg">
<path d="M78.2946 110.373L79.2379 110.09C79.8821 109.891 80.3361 109.443 80.4285 108.897L84.7452 70.7695C84.8158 70.3454 84.6718 69.8996 84.3347 69.5299L76.2504 60.6111C75.9052 60.2251 75.3833 59.956 74.807 59.8527L45.5606 40.5092C44.9898 40.4113 44.419 40.4929 43.9623 40.7348L33.3935 46.378C32.9504 46.6145 32.6541 46.9869 32.5861 47.4191L23.7815 99.4586C23.6836 100.021 23.9772 100.606 24.5508 101.008L24.7438 101.147C26.016 102.038 25.6952 103.585 24.1594 103.938C23.6837 104.05 23.3031 104.289 23.0612 104.61C22.9334 104.781 22.8491 104.971 22.8084 105.178L20.2151 120.534C20.0629 121.436 20.9028 122.333 22.0962 122.526C31.0802 123.97 65.5267 129.496 74.421 130.928C75.5844 131.116 76.6391 130.553 76.7941 129.664L79.3303 115.192C79.4309 114.643 79.1509 114.069 78.6045 113.664L77.8352 113.094C76.6636 112.229 76.9137 110.794 78.3 110.367L78.2946 110.373ZM55.6782 69.5544C53.5443 69.1928 52.1064 67.1731 52.4679 65.0365C52.8294 62.8999 54.8491 61.4647 56.9857 61.8262C59.1169 62.1877 60.5576 64.2074 60.1961 66.344C59.8345 68.4806 57.8094 69.9132 55.6782 69.5544V69.5544Z" fill="#F58750" stroke="black" stroke-width="2.10669" stroke-linecap="round" stroke-linejoin="round"/>
<path d="M74.3045 111.073L72.293 110.73" stroke="black" stroke-width="2.10669" stroke-linecap="round" stroke-linejoin="round"/>
<path d="M68.5581 110.094L33.0732 104.051" stroke="black" stroke-width="2.10669" stroke-linecap="round" stroke-linejoin="round"/>
<path d="M31.2059 103.733L29.1943 103.391" stroke="black" stroke-width="2.10669" stroke-linecap="round" stroke-linejoin="round"/>
<path d="M95.0849 101.752L95.9684 101.315C96.5719 101.01 96.9443 100.494 96.9443 99.9391L97.2351 47.4702C97.2351 47.0407 97.0177 46.6248 96.6235 46.3177L87.1638 38.8749C86.7587 38.5514 86.2015 38.372 85.6143 38.3693L51.1543 38.334C50.5753 38.334 50.0262 38.508 49.6157 38.8233L40.1369 46.1491C39.7401 46.4563 39.509 46.8749 39.5144 47.3099V100.089C39.5117 100.66 39.8977 101.187 40.5311 101.489L40.7458 101.595C42.1512 102.263 42.0887 103.84 40.6371 104.443C40.1886 104.634 39.8515 104.933 39.6667 105.289C39.5688 105.479 39.5172 105.68 39.5117 105.892V121.465C39.5144 122.382 40.4958 123.126 41.7027 123.118C50.8036 123.042 85.6877 122.746 94.6962 122.672C95.8732 122.664 96.8219 121.93 96.8247 121.028L96.9089 106.335C96.9171 105.778 96.5447 105.259 95.9385 104.952L95.0849 104.52C93.7856 103.864 93.7937 102.407 95.0877 101.755L95.0849 101.752ZM68.3721 51.1209C66.2056 51.1209 64.455 49.3676 64.455 47.2038C64.455 45.0401 66.2083 43.2868 68.3721 43.2868C70.5359 43.2868 72.2892 45.0401 72.2892 47.2038C72.2892 49.3676 70.5331 51.1209 68.3721 51.1209Z" fill="#FFC60C" stroke="black" stroke-width="2.10669" stroke-linecap="round" stroke-linejoin="round"/>
<path d="M91.2653 103.106L89.2266 103.104" stroke="black" stroke-width="2.10669" stroke-linecap="round" stroke-linejoin="round"/>
<path d="M85.4373 103.103L49.4414 103.064" stroke="black" stroke-width="2.10669" stroke-linecap="round" stroke-linejoin="round"/>
<path d="M47.5465 103.061L45.5078 103.059" stroke="black" stroke-width="2.10669" stroke-linecap="round" stroke-linejoin="round"/>
<path d="M58.0568 37.6845C56.2736 35.0913 55.0068 32.1555 55.0068 29.043C55.0014 18.4987 61.4955 9.94685 69.5145 9.94141C77.5335 9.93597 84.0384 18.4796 84.0466 29.024C84.052 39.5683 69.539 48.1256 69.539 48.1256C69.539 48.1256 67.8699 47.1443 65.6626 45.4344" stroke="black" stroke-width="2.10669" stroke-linecap="round" stroke-linejoin="round"/>
<g style="mix-blend-mode:multiply">
<path d="M48.0944 67.8126C47.7193 62.5064 51.9626 58.1136 57.2442 58.2903C61.6751 58.4371 65.3611 61.9655 65.7335 66.3855C66.2201 72.1428 61.1858 76.8564 55.4692 75.905C51.4705 75.239 48.3825 71.8574 48.0971 67.8126H48.0944ZM60.8813 66.3093C60.5198 64.5914 59.0302 63.2838 57.2796 63.1425C54.8983 62.9495 52.9493 64.8007 52.914 67.0977C52.8813 69.3022 54.6292 71.1507 56.8827 71.1833C59.3836 71.2213 61.4277 68.9053 60.8813 66.3093V66.3093ZM75.8022 59.1384C77.7213 59.1656 78.9744 61.1636 78.1644 62.9033L64.1161 93.1255C63.6758 94.0715 62.7189 94.6722 61.6751 94.6559C59.756 94.6287 58.5028 92.6308 59.3129 90.8911L73.3611 60.6688C73.8015 59.7229 74.7583 59.1221 75.8022 59.1357V59.1384ZM72.146 86.5173C72.2167 81.6705 76.2507 77.7507 81.0975 77.8241C86.1807 77.9002 90.1358 82.1245 89.8205 87.2105C89.5405 91.7229 85.7893 95.3627 81.2714 95.5122C76.18 95.678 72.0726 91.6005 72.146 86.52V86.5173ZM84.9221 87.4198C85.4141 84.8047 83.3536 82.4616 80.7033 82.6247C78.7543 82.7443 77.1369 84.3182 76.9574 86.2618C76.7155 88.9094 78.9989 91.0351 81.6248 90.6219C83.2721 90.361 84.6122 89.0589 84.9221 87.4198Z" fill="#FFC60C"/>
<path d="M78.2107 62.79C78.2107 62.79 80.5186 57.9215 75.5984 56.3965L74.1387 59.0115L78.2107 62.79Z" fill="#FFC60C"/>
<path d="M60.456 94.3388C60.456 94.3388 56.0251 92.629 58.3194 88.6738L61.6466 90.1825L60.4533 94.3388H60.456Z" fill="#FFC60C"/>
</g>
<path d="M46.7184 65.1114C46.3433 59.8052 50.5866 55.4124 55.8683 55.5891C60.2991 55.7359 63.9851 59.2643 64.3576 63.6843C64.8441 69.4417 59.8098 74.1552 54.0932 73.2038C50.0946 72.5378 47.0066 69.1563 46.7211 65.1114H46.7184ZM59.5054 63.6082C59.1438 61.8902 57.6542 60.5827 55.9036 60.4413C53.5223 60.2483 51.5733 62.0995 51.538 64.3965C51.5054 66.601 53.2532 68.4495 55.5067 68.4821C58.0076 68.5202 60.0517 66.2042 59.5054 63.6082V63.6082ZM74.4262 56.4372C76.3453 56.4644 77.5985 58.4624 76.7884 60.2021L62.7402 90.4243C62.2998 91.3703 61.3429 91.9711 60.2991 91.9548C58.38 91.9276 57.1268 89.9296 57.9369 88.1899L71.9851 57.9677C72.4255 57.0217 73.3824 56.4209 74.4262 56.4345V56.4372ZM70.7701 83.8161C70.8407 78.9694 74.8747 75.0495 79.7215 75.1229C84.8047 75.1991 88.7599 79.4233 88.4445 84.5093C88.1646 89.0217 84.4133 92.6615 79.8954 92.811C74.804 92.9768 70.6967 88.8994 70.7701 83.8188V83.8161ZM83.5461 84.7186C84.0381 82.1036 81.9777 79.7604 79.3273 79.9235C77.3783 80.0431 75.7609 81.617 75.5815 83.5606C75.3395 86.2082 77.6229 88.334 80.2488 87.9208C81.8961 87.6598 83.2362 86.3577 83.5461 84.7186Z" fill="#0C513F" stroke="black" stroke-width="1.31668" stroke-linecap="round" stroke-linejoin="round"/>
</svg>
